<?xml version="1.0" standalone="no"?>
<!DOCTYPE svg PUBLIC "-//W3C//DTD SVG 20010904//EN"
 "http://www.w3.org/TR/2001/REC-SVG-20010904/DTD/svg10.dtd">
<svg version="1.0" xmlns="http://www.w3.org/2000/svg"
 width="1920.000000pt" height="1080.000000pt" viewBox="0 0 1920.000000 1080.000000"
 preserveAspectRatio="xMidYMid meet">

<g transform="translate(0.000000,1080.000000) scale(0.100000,-0.100000)"
fill="#000000" stroke="none">
<path d="M0 10180 l0 -620 85 0 85 0 0 35 c0 34 -1 35 -40 35 l-40 0 2 213 c1
116 3 193 5 170 4 -42 5 -43 39 -43 34 0 34 0 34 45 l0 45 45 0 c45 0 45 0 45
35 l0 35 79 0 80 0 3 -37 3 -38 83 -3 82 -3 0 -39 0 -40 45 0 45 0 0 -40 0
-40 40 0 40 0 0 -45 0 -45 40 0 40 0 0 -67 c0 -38 3 -91 6 -120 7 -51 7 -52
43 -55 35 -3 36 -5 39 -45 l3 -43 -48 2 -48 1 43 4 c41 4 42 5 42 39 l0 34
-80 0 -80 0 0 -40 0 -40 -289 0 -290 0 -4 -42 c-2 -24 -4 -6 -5 40 l-2 82 -85
0 -85 0 0 -4775 0 -4775 2325 0 2325 0 0 625 0 625 280 0 280 0 0 -625 0 -625
260 0 260 0 0 175 c0 168 1 175 20 175 19 0 20 -7 20 -110 l0 -110 33 0 c70 0
97 -27 97 -97 l0 -33 90 0 c83 0 90 1 90 20 0 13 7 20 20 20 13 0 20 -7 20
-20 0 -18 7 -20 59 -20 54 0 60 2 64 23 l4 22 2 -22 c1 -20 6 -23 46 -23 45 0
45 0 45 35 0 28 4 35 20 35 16 0 20 -7 20 -35 l0 -35 85 0 85 0 0 35 c0 31 3
35 25 35 22 0 25 -4 25 -35 l0 -35 3000 0 3000 0 0 35 c0 31 3 35 25 35 22 0
25 -4 25 -35 l0 -35 85 0 85 0 0 35 c0 28 4 35 20 35 16 0 20 -7 20 -35 0 -35
0 -35 44 -35 38 0 45 3 49 23 l4 22 2 -22 c1 -21 6 -23 61 -23 53 0 60 2 60
20 0 13 7 20 20 20 13 0 20 -7 20 -20 0 -19 7 -20 90 -20 l90 0 0 33 c0 70 27
97 97 97 l33 0 0 110 c0 103 1 110 20 110 19 0 20 -7 20 -175 l0 -175 260 0
260 0 0 625 0 625 280 0 280 0 0 -625 0 -625 2325 0 2325 0 0 4775 0 4775 -85
0 -85 0 -2 -82 c-1 -46 -3 -64 -5 -40 l-4 42 -290 0 -289 0 0 40 0 40 -80 0
-80 0 0 -34 c0 -34 1 -35 43 -39 l42 -4 -48 -1 -48 -2 3 43 c3 40 4 42 39 45
l36 3 7 61 c3 34 6 87 6 119 l0 59 40 0 40 0 0 45 0 45 40 0 40 0 0 40 0 40
45 0 45 0 0 40 0 39 83 3 82 3 3 38 3 37 80 0 79 0 0 -35 c0 -35 0 -35 45 -35
l45 0 0 -45 c0 -45 0 -45 34 -45 34 0 35 1 39 43 2 23 4 -54 5 -170 l2 -213
-40 0 c-39 0 -40 -1 -40 -35 l0 -35 85 0 85 0 0 620 0 620 -9600 0 -9600 0 0
-620z m2510 -336 l0 -45 83 3 82 3 3 -127 3 -128 -126 0 -125 0 0 -35 0 -35
83 -2 82 -2 -82 -3 -83 -4 -2 -42 -1 -42 -4 43 -4 42 -247 2 c-136 1 -228 3
-204 5 l42 4 0 74 0 74 -42 4 c-24 2 -6 4 40 5 l82 2 2 83 c1 45 3 65 5 45 4
-36 6 -38 39 -38 33 0 34 1 34 40 l0 40 45 0 45 0 0 40 0 40 125 0 125 0 0
-46z m14430 6 l0 -40 45 0 45 0 0 -40 c0 -39 1 -40 34 -40 33 0 35 2 39 38 2
20 4 0 5 -45 l2 -83 83 -2 c45 -1 63 -3 40 -5 l-43 -4 0 -74 0 -74 43 -4 c23
-2 -69 -4 -205 -5 l-248 -2 -2 -42 -1 -43 -4 42 -4 42 -82 3 -82 3 -3 38 c-3
36 -4 37 -43 37 l-40 0 3 128 3 127 83 -3 82 -3 0 45 0 46 125 0 125 0 0 -40z
m-13680 -85 l0 -45 125 0 125 0 0 -85 0 -85 85 0 85 0 0 -40 0 -40 -295 0
-295 0 0 40 0 40 -40 0 c-40 0 -40 0 -40 40 l0 39 -127 4 c-122 3 -121 3 40 5
l167 2 0 79 0 80 48 4 c26 2 64 4 85 5 l37 2 0 -45z m12826 35 c23 0 24 -3 24
-80 l0 -80 168 -2 c160 -2 161 -2 40 -5 l-128 -4 0 -39 c0 -40 0 -40 -40 -40
l-40 0 0 -40 0 -40 -295 0 -295 0 0 40 0 40 85 0 85 0 0 85 0 85 125 0 125 0
0 46 0 47 61 -7 c34 -3 73 -6 85 -6z m-14826 -120 l0 -40 85 0 85 0 0 -45 0
-45 40 0 40 0 0 -80 0 -80 -125 0 -125 0 0 40 0 40 -40 0 -40 0 0 -40 0 -40
-45 0 -45 0 0 40 0 40 -40 0 -40 0 0 125 0 125 125 0 125 0 0 -40z m16930 -85
l0 -125 -40 0 -40 0 0 -40 0 -40 -45 0 -45 0 0 40 0 40 -40 0 -40 0 0 -40 0
-40 -125 0 -125 0 0 80 0 80 40 0 40 0 0 45 0 45 85 0 85 0 0 40 0 40 125 0
125 0 0 -125z m-8000 35 l0 -60 175 0 175 0 0 -55 0 -54 118 -3 117 -3 3 -57
3 -58 54 0 55 0 0 -60 0 -60 60 0 60 0 0 -60 0 -60 60 0 60 0 0 -55 0 -54 58
-3 57 -3 3 -57 3 -58 54 0 55 0 0 -60 0 -60 60 0 60 0 0 -115 0 -114 58 -3 57
-3 3 -177 2 -178 55 0 55 0 0 -235 0 -235 -2110 0 -2110 0 0 235 0 235 55 0
55 0 2 178 3 177 58 3 57 3 0 114 0 115 60 0 60 0 0 60 0 60 55 0 54 0 3 58 3
57 58 3 57 3 0 54 0 55 60 0 60 0 0 60 0 60 60 0 60 0 0 60 0 60 55 0 54 0 3
58 3 57 118 3 117 3 0 54 0 55 175 0 175 0 0 60 0 60 590 0 590 0 0 -60z
m-7340 -110 l0 -39 83 -4 82 -3 -87 -2 -88 -2 0 39 c0 40 0 40 -42 44 l-43 4
48 1 47 2 0 -40z m13553 33 c-43 -4 -43 -4 -43 -44 l0 -39 -87 2 -88 2 83 3
82 4 0 39 0 40 48 -2 47 -1 -42 -4z m-13763 -1133 c0 -13 7 -20 20 -20 13 0
20 -7 20 -20 0 -13 7 -20 20 -20 13 0 20 -7 20 -20 0 -13 -7 -20 -20 -20 -13
0 -20 -7 -20 -20 0 -16 7 -20 35 -20 28 0 35 4 35 20 0 18 7 20 60 20 48 0 60
-3 60 -16 0 -9 9 -18 20 -21 11 -3 20 -14 20 -24 0 -12 7 -19 20 -19 11 0 20
-7 20 -15 0 -8 9 -15 20 -15 17 0 20 -7 20 -40 0 -33 3 -40 20 -40 17 0 20 -7
20 -40 l0 -40 95 0 c88 0 95 -1 95 -20 0 -13 7 -20 20 -20 13 0 20 -7 20 -20
0 -13 7 -20 19 -20 18 0 31 -25 31 -62 0 -16 -10 -18 -80 -18 -73 0 -80 -2
-80 -20 0 -19 -7 -20 -155 -20 -131 0 -155 -2 -155 -15 0 -12 13 -15 56 -15
47 0 57 -3 61 -20 5 -18 14 -20 93 -20 79 0 88 2 93 20 5 18 14 20 80 20 66 0
75 2 80 20 3 12 13 20 24 19 15 -1 15 -2 2 -6 -10 -2 -19 -13 -22 -24 -5 -17
-14 -19 -81 -19 -69 0 -76 -2 -76 -20 0 -19 -7 -20 -100 -20 -93 0 -100 1
-100 20 0 18 -7 20 -56 20 -47 0 -57 3 -61 20 -5 17 -14 20 -60 20 -46 0 -56
3 -60 19 -3 11 -12 22 -22 24 -13 4 -13 5 2 6 11 1 21 -7 24 -19 5 -17 14 -20
59 -20 41 0 54 4 54 15 0 11 -11 15 -40 15 l-40 0 0 40 c0 33 3 40 20 40 13 0
20 7 20 20 0 16 -7 20 -34 20 -34 0 -35 -1 -39 -42 -3 -34 -4 -30 -5 20 -2 46
-6 62 -16 62 -8 0 -17 -10 -19 -22 -2 -13 -5 5 -6 40 -1 48 -4 62 -16 62 -11
0 -15 -11 -15 -40 l0 -40 -65 0 c-51 0 -65 3 -65 15 0 8 -7 15 -15 15 -8 0
-15 9 -15 20 0 13 -7 20 -20 20 -13 0 -20 7 -20 20 0 17 -7 20 -40 20 -39 0
-40 -1 -40 -35 0 -28 4 -35 20 -35 13 0 20 -7 20 -20 0 -13 7 -20 20 -20 13 0
20 -7 20 -20 0 -13 7 -20 20 -20 13 0 20 -7 20 -20 0 -17 7 -20 40 -20 33 0
40 -3 40 -20 0 -13 7 -20 20 -20 13 0 20 -7 20 -20 0 -13 -7 -20 -20 -20 -11
0 -20 -7 -20 -15 0 -23 67 -20 73 3 4 13 5 11 6 -5 1 -20 -4 -23 -39 -23 -31
0 -40 -4 -41 -17 -1 -17 -2 -17 -6 0 -4 15 -19 17 -139 17 -127 0 -134 1 -134
20 0 16 -7 20 -35 20 -29 0 -35 -4 -36 -22 l-2 -23 -4 23 c-4 18 -11 22 -40
22 -26 0 -36 5 -40 19 -4 14 -16 21 -42 24 l-36 4 38 1 c31 2 40 -2 44 -18 7
-25 73 -30 73 -5 0 8 -9 15 -20 15 -13 0 -20 7 -20 20 0 13 -7 20 -20 20 -18
0 -20 7 -20 75 0 60 -3 75 -15 75 -12 0 -15 13 -15 59 0 50 3 59 20 64 11 3
20 12 20 21 0 9 8 16 20 16 13 0 20 7 20 20 0 13 7 20 20 20 13 0 20 7 20 20
0 18 7 20 80 20 44 0 80 -4 80 -9 0 -38 -15 -71 -31 -71 -16 0 -19 -8 -19 -55
l0 -55 40 0 c39 0 40 1 40 35 0 26 -4 35 -17 36 -17 1 -17 2 0 6 13 4 17 15
17 58 l0 54 38 3 c35 3 37 5 40 41 l3 37 80 0 c72 0 79 -2 79 -20z m14655 -20
c6 -38 9 -40 41 -40 l34 0 0 -55 c0 -50 2 -55 23 -56 16 -1 18 -2 5 -6 -13 -3
-18 -15 -18 -39 0 -32 2 -34 35 -34 l35 0 0 55 c0 48 -2 55 -20 55 -17 0 -20
7 -20 40 l0 40 80 0 c73 0 80 -2 80 -20 0 -13 7 -20 20 -20 13 0 20 -7 20 -20
0 -13 7 -20 20 -20 13 0 20 -7 20 -20 0 -13 7 -20 20 -20 18 0 20 -7 20 -60 0
-53 -2 -60 -20 -60 -18 0 -20 -7 -20 -75 0 -68 -2 -75 -20 -75 -13 0 -20 -7
-20 -20 0 -13 -7 -20 -20 -20 -11 0 -20 -7 -20 -15 0 -25 66 -20 73 5 4 15 14
20 40 20 34 0 36 2 40 38 l4 37 1 -42 2 -43 -40 0 c-33 0 -40 -3 -40 -20 0
-18 -7 -20 -80 -20 -73 0 -80 -2 -80 -20 0 -19 -7 -20 -135 -20 -121 0 -135
-2 -136 -17 -1 -17 -2 -17 -6 0 -3 12 -16 18 -41 19 l-37 1 38 4 c39 4 54 33
17 33 -13 0 -20 7 -20 20 0 13 7 20 20 20 17 0 20 7 21 43 1 23 4 32 6 20 4
-19 11 -23 39 -23 27 0 34 4 34 20 0 13 7 20 20 20 13 0 20 7 20 20 0 13 7 20
20 20 13 0 20 7 20 20 0 13 7 20 20 20 16 0 20 7 20 35 0 33 -2 35 -35 35 -25
0 -35 -4 -35 -16 0 -9 -9 -18 -20 -21 -11 -3 -20 -14 -20 -24 0 -12 -7 -19
-20 -19 -16 0 -20 -7 -21 -37 -1 -24 -3 -29 -6 -15 -4 20 -10 22 -64 22 l-59
0 0 40 c0 29 -4 40 -15 40 -11 0 -15 -11 -15 -40 0 -33 -3 -40 -20 -40 -13 0
-20 -7 -20 -20 0 -17 -7 -20 -40 -20 -33 0 -40 -3 -40 -20 0 -17 -7 -20 -40
-20 -33 0 -40 -3 -40 -20 0 -16 7 -20 36 -20 27 0 37 5 41 20 3 11 14 20 24
20 15 0 19 -7 19 -40 l0 -40 -40 0 c-29 0 -40 -4 -40 -15 0 -12 13 -15 55 -15
44 0 55 3 55 16 0 9 9 18 19 21 11 3 22 12 24 22 3 11 5 9 6 -6 1 -17 -5 -23
-19 -23 -13 0 -20 -7 -20 -20 0 -19 -7 -20 -220 -20 -213 0 -220 1 -220 20 0
18 -7 20 -80 20 -44 0 -80 4 -80 9 0 38 15 71 31 71 12 0 19 7 19 20 0 13 7
20 20 20 13 0 20 7 20 20 0 19 7 20 95 20 l95 0 0 40 c0 33 3 40 20 40 17 0
20 7 20 40 0 33 3 40 20 40 11 0 20 7 20 15 0 8 9 15 20 15 13 0 20 7 20 20 0
13 7 20 20 20 13 0 20 7 20 20 0 18 7 20 60 20 54 0 60 -2 60 -21 0 -17 5 -20
37 -17 27 2 39 8 41 21 2 12 -3 17 -17 17 -14 0 -21 6 -21 20 0 12 7 20 16 20
9 0 18 9 21 20 3 11 14 20 24 20 12 0 19 7 19 20 0 18 7 20 74 20 l74 0 7 -40z
m392 -372 c-2 -13 -4 -3 -4 22 0 25 2 35 4 23 2 -13 2 -33 0 -45z m-15717 -38
c0 -13 7 -20 20 -20 17 0 20 -7 20 -40 0 -33 3 -40 20 -40 13 0 20 -7 20 -20
0 -14 7 -20 21 -20 14 0 19 -5 17 -17 -2 -13 -14 -19 -41 -21 -29 -3 -37 -7
-37 -23 0 -12 -7 -19 -20 -19 -16 0 -20 -7 -22 -37 l-1 -38 -4 38 -4 37 -77 1
c-42 1 -67 4 -54 6 18 4 22 11 22 39 0 27 -4 34 -20 34 -18 0 -20 7 -20 60 0
53 2 60 20 60 13 0 20 7 20 20 0 18 7 20 60 20 53 0 60 -2 60 -20z m15950 0
c0 -13 7 -20 19 -20 19 0 31 -34 31 -91 0 -22 -5 -29 -20 -29 -16 0 -20 -7
-20 -34 0 -24 5 -36 18 -39 9 -3 -18 -5 -60 -6 l-78 -1 -2 -37 -1 -38 -4 38
c-3 25 -9 37 -20 37 -8 0 -17 9 -20 19 -4 14 -15 21 -41 23 -26 2 -38 8 -40
21 -2 12 3 17 17 17 14 0 21 6 21 20 0 13 7 20 20 20 17 0 20 7 20 40 0 36 3
40 25 40 18 0 25 5 25 20 0 18 7 20 55 20 48 0 55 -2 55 -20z m-863 -52 c-3
-7 -5 -2 -5 12 0 14 2 19 5 13 2 -7 2 -19 0 -25z m-13437 -68 c0 -17 7 -20 40
-20 33 0 40 -3 40 -20 0 -13 7 -20 20 -20 13 0 20 -7 20 -20 0 -14 7 -20 21
-20 14 0 19 -5 17 -17 -2 -14 -15 -19 -61 -21 -49 -3 -57 -6 -57 -22 0 -17 -7
-20 -40 -20 -33 0 -40 3 -40 20 0 16 -7 20 -35 20 -26 0 -35 -4 -36 -17 -1
-17 -2 -17 -6 0 -3 12 -15 17 -40 17 -26 0 -36 5 -40 19 -3 11 -13 21 -24 24
-15 4 -19 13 -17 44 l1 38 4 -37 c3 -30 9 -38 24 -38 12 0 19 -7 19 -20 0 -16
7 -20 35 -20 33 0 35 2 35 35 0 34 -1 35 -40 35 -42 0 -47 8 -34 58 6 21 11
22 100 22 87 0 94 -1 94 -20z m12730 -20 l0 -40 -40 0 c-39 0 -40 -1 -40 -34
0 -34 1 -35 43 -39 25 -2 11 -4 -35 -5 -71 -2 -78 -4 -78 -22 0 -17 -7 -20
-39 -20 -29 0 -41 -5 -44 -17 -3 -10 -5 -1 -6 20 l-1 37 -55 0 c-48 0 -55 2
-55 20 0 12 7 20 16 20 9 0 18 9 21 20 3 11 12 20 19 20 8 0 14 9 14 20 0 17
7 20 40 20 33 0 40 3 40 20 0 19 7 20 100 20 l100 0 0 -40z m113 3 c-7 -2 -19
-2 -25 0 -7 3 -2 5 12 5 14 0 19 -2 13 -5z m-73 -43 c0 -35 -3 -40 -22 -39
-17 1 -19 2 -5 6 12 3 17 15 17 39 0 19 2 34 5 34 3 0 5 -18 5 -40z m-14587 3
c-7 -2 -19 -2 -25 0 -7 3 -2 5 12 5 14 0 19 -2 13 -5z m14827 -13 c0 -18 8
-20 98 -23 l97 -3 -98 -2 c-91 -2 -99 0 -104 18 -4 17 -16 20 -82 23 l-76 3
83 2 c76 2 82 0 82 -18z m283 13 c-18 -2 -48 -2 -65 0 -18 2 -4 4 32 4 36 0
50 -2 33 -4z m1080 0 c-7 -2 -19 -2 -25 0 -7 3 -2 5 12 5 14 0 19 -2 13 -5z
m-16315 -74 c15 -1 15 -2 0 -6 -10 -2 -18 -10 -18 -17 0 -8 -14 -16 -31 -20
-48 -9 -207 -7 -213 3 -3 5 -3 23 0 40 6 30 8 31 59 31 44 0 54 -3 58 -20 7
-26 37 -26 44 -1 7 27 76 34 81 9 2 -10 11 -19 20 -19z m16522 11 c0 -13 7
-20 20 -20 13 0 20 7 20 20 0 18 7 20 54 20 47 0 54 -3 60 -22 15 -57 14 -58
-91 -58 -111 0 -143 6 -143 26 0 8 -10 15 -22 15 l-23 2 23 4 c12 2 22 11 22
19 0 10 12 14 40 14 33 0 40 -3 40 -20z m-16317 -17 c-7 -2 -19 -2 -25 0 -7 3
-2 5 12 5 14 0 19 -2 13 -5z m16030 0 c-7 -2 -19 -2 -25 0 -7 3 -2 5 12 5 14
0 19 -2 13 -5z m484 -55 c-2 -13 -4 -5 -4 17 -1 22 1 32 4 23 2 -10 2 -28 0
-40z m-6687 -120 c0 -17 16 -18 205 -18 l205 0 0 -150 0 -150 -600 0 -600 0 0
-150 0 -150 450 0 450 0 0 -150 0 -150 -450 0 -450 0 0 -150 0 -150 600 0 600
0 0 -150 0 -150 -750 0 -750 0 0 358 c-1 196 -2 436 -3 532 l-2 175 -37 3 -38
3 0 55 0 54 40 0 40 0 0 60 0 60 -700 0 -700 0 0 55 0 55 -50 0 -50 0 0 -555
0 -555 600 0 600 0 0 -150 0 -150 -600 0 -600 0 0 150 0 150 -150 0 -150 0 0
205 c0 198 -1 205 -20 205 -18 0 -20 7 -20 60 0 53 2 60 20 60 18 0 20 7 20
60 0 53 -2 60 -20 60 -18 0 -20 7 -20 54 0 45 3 54 20 59 19 5 20 14 20 121
l0 116 -665 0 -665 0 0 115 0 114 58 3 c31 2 981 3 2110 3 1952 0 2052 -1
2052 -17z m-8590 -168 l0 -150 -600 0 -600 0 0 -450 0 -450 600 0 600 0 0
-150 0 -150 -600 0 -600 0 0 150 0 150 -150 0 -150 0 0 450 0 450 150 0 150 0
0 150 0 150 600 0 600 0 0 -150z m600 -150 l0 -300 450 0 450 0 0 300 0 300
150 0 150 0 0 -750 0 -750 -150 0 -150 0 0 300 0 300 -450 0 -450 0 0 -300 0
-300 -150 0 -150 0 0 750 0 750 150 0 150 0 0 -300z m2700 150 l0 -150 150 0
150 0 0 -600 0 -600 -150 0 -150 0 0 150 0 150 -450 0 -450 0 0 -150 0 -150
-150 0 -150 0 0 600 0 600 150 0 150 0 0 150 0 150 450 0 450 0 0 -150z m900
-450 l0 -600 600 0 600 0 0 -150 0 -150 -600 0 -600 0 0 150 0 150 -150 0
-150 0 0 600 0 600 150 0 150 0 0 -600z m5400 450 l0 -150 150 0 150 0 0 -150
0 -150 150 0 150 0 0 -150 0 -150 150 0 150 0 0 450 0 450 150 0 150 0 0 -750
0 -750 -150 0 -150 0 0 150 0 150 -150 0 -150 0 0 150 0 150 -150 0 -150 0 0
150 0 150 -150 0 -150 0 0 -450 0 -450 -150 0 -150 0 0 750 0 750 150 0 150 0
0 -150z m3000 0 l0 -150 -600 0 -600 0 0 -450 0 -450 445 0 445 0 0 150 0 150
-300 0 -300 0 0 150 0 150 455 0 455 0 0 -450 0 -450 -605 0 -605 0 0 150 0
150 -150 0 -150 0 0 450 0 450 150 0 150 0 0 150 0 150 605 0 605 0 0 -150z
m1800 0 l0 -150 -600 0 -600 0 0 -150 0 -150 450 0 450 0 0 -150 0 -150 -450
0 -450 0 0 -150 0 -150 600 0 600 0 0 -150 0 -150 -755 0 -755 0 0 750 0 750
755 0 755 0 0 -150z m-9920 -225 l0 -55 -55 0 -55 0 0 55 0 55 55 0 55 0 0
-55z m230 0 l0 -55 -55 0 -55 0 0 55 0 55 55 0 55 0 0 -55z m240 0 l0 -55 -55
0 -55 0 0 55 0 55 55 0 55 0 0 -55z m230 0 l0 -55 -55 0 -55 0 0 55 0 55 55 0
55 0 0 -55z m240 0 l0 -55 -55 0 -55 0 0 55 0 55 55 0 55 0 0 -55z m230 0 l0
-55 -55 0 -55 0 0 55 0 55 55 0 55 0 0 -55z m470 0 c0 -30 -4 -55 -10 -55 -5
0 -10 25 -10 55 0 30 5 55 10 55 6 0 10 -25 10 -55z m240 0 l0 -55 -55 0 -55
0 0 55 0 55 55 0 55 0 0 -55z m230 0 l0 -55 -55 0 -55 0 0 55 0 55 55 0 55 0
0 -55z m240 0 l0 -55 -55 0 -55 0 0 55 0 55 55 0 55 0 0 -55z m230 0 l0 -55
-55 0 -55 0 0 55 0 55 55 0 55 0 0 -55z m240 0 l0 -55 -55 0 -55 0 0 55 0 55
55 0 55 0 0 -55z m700 -35 c0 -17 -7 -20 -50 -20 -43 0 -50 3 -50 20 0 17 7
20 50 20 43 0 50 -3 50 -20z m240 0 c0 -18 -7 -20 -55 -20 -48 0 -55 2 -55 20
0 18 7 20 55 20 48 0 55 -2 55 -20z m230 0 c0 -18 -7 -20 -55 -20 -48 0 -55 2
-55 20 0 18 7 20 55 20 48 0 55 -2 55 -20z m-3870 -85 l0 -55 -55 0 -55 0 0
55 0 55 55 0 55 0 0 -55z m230 0 l0 -55 -55 0 -55 0 0 55 0 55 55 0 55 0 0
-55z m240 0 l0 -55 -55 0 -55 0 0 55 0 55 55 0 55 0 0 -55z m230 0 l0 -55 -55
0 -55 0 0 55 0 55 55 0 55 0 0 -55z m240 0 l0 -55 -55 0 -55 0 0 55 0 55 55 0
55 0 0 -55z m700 0 l0 -55 -55 0 -55 0 0 55 0 55 55 0 55 0 0 -55z m240 0 l0
-55 -55 0 -55 0 0 55 0 55 55 0 55 0 0 -55z m230 0 l0 -55 -55 0 -55 0 0 55 0
55 55 0 55 0 0 -55z m240 0 l0 -55 -55 0 -55 0 0 55 0 55 55 0 55 0 0 -55z
m230 0 l0 -55 -55 0 -55 0 0 55 0 55 55 0 55 0 0 -55z m240 0 l0 -55 -55 0
-55 0 0 55 0 55 55 0 55 0 0 -55z m700 0 l0 -55 -55 0 -55 0 0 55 0 55 55 0
55 0 0 -55z m240 0 l0 -55 -55 0 -55 0 0 55 0 55 55 0 55 0 0 -55z m230 0 l0
-55 -55 0 -55 0 0 55 0 55 55 0 55 0 0 -55z m-3990 -235 l0 -60 -55 0 -55 0 0
60 0 60 55 0 55 0 0 -60z m230 0 l0 -60 -55 0 -55 0 0 60 0 60 55 0 55 0 0
-60z m240 0 l0 -60 -55 0 -55 0 0 60 0 60 55 0 55 0 0 -60z m230 0 l0 -60 -55
0 -55 0 0 60 0 60 55 0 55 0 0 -60z m240 0 l0 -60 -55 0 -55 0 0 60 0 60 55 0
55 0 0 -60z m700 0 l0 -60 -55 0 -55 0 0 60 0 60 55 0 55 0 0 -60z m240 0 l0
-60 -55 0 -55 0 0 60 0 60 55 0 55 0 0 -60z m230 0 l0 -60 -55 0 -55 0 0 60 0
60 55 0 55 0 0 -60z m240 0 l0 -60 -55 0 -55 0 0 60 0 60 55 0 55 0 0 -60z
m230 0 l0 -60 -55 0 -55 0 0 60 0 60 55 0 55 0 0 -60z m240 0 l0 -60 -55 0
-55 0 0 60 0 60 55 0 55 0 0 -60z m-2020 -2400 l0 -150 150 0 150 0 0 150 0
150 150 0 150 0 0 -150 0 -150 150 0 150 0 0 -150 0 -150 -150 0 -150 0 0
-150 0 -150 150 0 150 0 0 -150 0 -150 -150 0 -150 0 0 -150 0 -150 -150 0
-150 0 0 150 0 150 -150 0 -150 0 0 -150 0 -150 -150 0 -150 0 0 150 0 150
-150 0 -150 0 0 150 0 150 150 0 150 0 0 150 0 150 -150 0 -150 0 0 150 0 150
150 0 150 0 0 150 0 150 150 0 150 0 0 -150z m2400 0 l0 -150 150 0 150 0 0
-150 0 -150 -150 0 -150 0 0 -150 0 -150 150 0 150 0 0 -150 0 -150 -150 0
-150 0 0 -150 0 -150 -450 0 -450 0 0 150 0 150 -150 0 -150 0 0 150 0 150
150 0 150 0 0 -150 0 -150 450 0 450 0 0 150 0 150 -300 0 -300 0 0 150 0 150
300 0 300 0 0 150 0 150 -450 0 -450 0 0 -150 0 -150 -150 0 -150 0 0 150 0
150 150 0 150 0 0 150 0 150 450 0 450 0 0 -150z m-10380 -540 l0 -380 -35 0
-35 0 0 380 0 380 35 0 35 0 0 -380z m18190 0 l0 -380 -35 0 -35 0 0 380 0
380 35 0 35 0 0 -380z m-18089 -100 l29 0 0 -380 0 -380 -35 0 -35 0 2 413 c0
226 3 397 5 380 4 -29 8 -33 34 -33z m17959 -350 l0 -410 -35 0 -35 0 0 380 0
380 30 0 c27 0 30 3 30 30 0 17 2 30 5 30 3 0 5 -184 5 -410z m-15990 -825 l0
-135 -542 0 c-299 0 -560 -3 -580 -6 l-38 -7 0 142 0 141 580 0 580 0 0 -135z
m15140 -6 l0 -142 -37 7 c-21 3 -282 6 -580 6 l-543 0 0 135 0 135 580 0 580
0 0 -141z m-10850 -79 l0 -170 -1190 0 -1190 0 0 170 0 170 1190 0 1190 0 0
-170z m7780 0 l0 -170 -1190 0 -1190 0 0 170 0 170 1190 0 1190 0 0 -170z
m-10960 -175 c0 -18 5 -25 20 -25 17 0 20 -7 20 -45 l0 -45 -1175 0 -1175 0 0
45 c0 38 3 45 20 45 15 0 20 7 20 25 l0 25 1135 0 1135 0 0 -25z m14030 0 c0
-18 5 -25 20 -25 17 0 20 -7 20 -45 l0 -45 -1175 0 -1175 0 0 45 c0 38 3 45
20 45 15 0 20 7 20 25 l0 25 1135 0 1135 0 0 -25z m-13230 -65 c0 -20 7 -20
1190 -20 1183 0 1190 0 1190 20 0 13 7 20 20 20 17 0 20 -7 20 -40 l0 -40
-1235 0 -1235 0 0 40 c0 36 3 40 25 40 18 0 25 -5 25 -20z m7780 0 c0 -20 7
-20 1190 -20 1183 0 1190 0 1190 20 0 15 7 20 25 20 23 0 25 -4 25 -40 l0 -40
-1235 0 -1235 0 0 40 c0 33 3 40 20 40 13 0 20 -7 20 -20z m-5400 -150 c0 -33
3 -40 20 -40 17 0 20 -7 20 -45 0 -41 2 -45 25 -45 23 0 25 -4 25 -45 0 -38 3
-45 20 -45 17 0 20 -7 20 -40 0 -33 3 -40 20 -40 17 0 20 -7 20 -45 0 -38 -3
-45 -20 -45 -13 0 -20 -7 -20 -20 0 -15 -7 -20 -25 -20 -18 0 -25 5 -25 20 0
11 -7 20 -15 20 -8 0 -15 -9 -15 -20 0 -18 -7 -20 -70 -20 -63 0 -70 2 -70 20
0 17 -7 20 -40 20 -33 0 -40 -3 -40 -20 0 -18 -7 -20 -70 -20 -63 0 -70 2 -70
20 0 17 -7 20 -40 20 -33 0 -40 -3 -40 -20 0 -19 -7 -20 -110 -20 -103 0 -110
1 -110 20 0 17 -7 20 -40 20 -33 0 -40 -3 -40 -20 0 -19 -7 -20 -110 -20 -103
0 -110 1 -110 20 0 17 -7 20 -40 20 -33 0 -40 -3 -40 -20 0 -18 -7 -20 -70
-20 l-70 0 0 40 0 40 -60 0 -60 0 0 -40 0 -40 -70 0 c-63 0 -70 2 -70 20 0 17
-7 20 -40 20 -33 0 -40 -3 -40 -20 0 -19 -7 -20 -110 -20 -103 0 -110 1 -110
20 0 17 -7 20 -40 20 -33 0 -40 -3 -40 -20 0 -19 -7 -20 -115 -20 -108 0 -115
1 -115 20 0 17 -7 20 -40 20 -33 0 -40 -3 -40 -20 0 -18 -7 -20 -65 -20 -58 0
-65 2 -65 20 0 17 -7 20 -40 20 -33 0 -40 -3 -40 -20 0 -18 -7 -20 -70 -20
-63 0 -70 2 -70 20 0 13 -7 20 -20 20 -13 0 -20 -7 -20 -20 0 -13 -7 -20 -20
-20 -13 0 -20 7 -20 20 0 13 -7 20 -20 20 -17 0 -20 7 -20 45 0 38 3 45 20 45
17 0 20 7 20 40 0 33 3 40 20 40 17 0 20 7 20 45 0 38 3 45 20 45 17 0 20 7
20 45 0 41 2 45 25 45 23 0 25 4 25 40 l0 40 1190 0 1190 0 0 -40z m7780 0 c0
-36 3 -40 25 -40 23 0 25 -4 25 -45 0 -38 3 -45 20 -45 17 0 20 -7 20 -45 0
-38 3 -45 20 -45 17 0 20 -7 20 -40 0 -33 3 -40 20 -40 17 0 20 -7 20 -45 0
-38 -3 -45 -20 -45 -13 0 -20 -7 -20 -20 0 -13 -7 -20 -20 -20 -13 0 -20 7
-20 20 0 13 -7 20 -20 20 -13 0 -20 -7 -20 -20 0 -18 -7 -20 -70 -20 -63 0
-70 2 -70 20 0 17 -7 20 -40 20 -33 0 -40 -3 -40 -20 0 -18 -7 -20 -65 -20
-58 0 -65 2 -65 20 0 17 -7 20 -40 20 -33 0 -40 -3 -40 -20 0 -19 -7 -20 -115
-20 -108 0 -115 1 -115 20 0 17 -7 20 -40 20 -33 0 -40 -3 -40 -20 0 -19 -7
-20 -110 -20 -103 0 -110 1 -110 20 0 17 -7 20 -40 20 -33 0 -40 -3 -40 -20 0
-18 -7 -20 -70 -20 l-70 0 0 40 0 40 -60 0 -60 0 0 -40 0 -40 -70 0 c-63 0
-70 2 -70 20 0 17 -7 20 -40 20 -33 0 -40 -3 -40 -20 0 -19 -7 -20 -110 -20
-103 0 -110 1 -110 20 0 17 -7 20 -40 20 -33 0 -40 -3 -40 -20 0 -19 -7 -20
-110 -20 -103 0 -110 1 -110 20 0 17 -7 20 -40 20 -33 0 -40 -3 -40 -20 0 -18
-7 -20 -70 -20 -63 0 -70 2 -70 20 0 17 -7 20 -40 20 -33 0 -40 -3 -40 -20 0
-18 -7 -20 -70 -20 -63 0 -70 2 -70 20 0 11 -7 20 -15 20 -8 0 -15 -9 -15 -20
0 -15 -7 -20 -25 -20 -18 0 -25 5 -25 20 0 13 -7 20 -20 20 -17 0 -20 7 -20
45 0 38 3 45 20 45 17 0 20 7 20 40 0 33 3 40 20 40 17 0 20 7 20 45 0 41 2
45 25 45 23 0 25 4 25 45 0 38 3 45 20 45 17 0 20 7 20 40 l0 40 1190 0 1190
0 0 -40z m-13277 -20 c3 -14 14 -20 31 -20 19 0 26 5 26 20 0 13 7 20 20 20
13 0 20 -7 20 -20 0 -15 7 -20 25 -20 18 0 25 5 25 20 0 13 7 20 20 20 13 0
20 -7 20 -20 0 -15 7 -20 25 -20 18 0 25 5 25 20 0 13 7 20 20 20 13 0 20 -7
20 -20 0 -15 7 -20 25 -20 18 0 25 5 25 20 0 13 7 20 20 20 13 0 20 -7 20 -20
0 -16 7 -20 30 -20 23 0 30 4 30 20 0 13 7 20 20 20 13 0 20 -7 20 -20 0 -15
7 -20 25 -20 18 0 25 5 25 20 0 13 7 20 20 20 13 0 20 -7 20 -20 0 -15 7 -20
25 -20 18 0 25 5 25 20 0 13 7 20 20 20 13 0 20 -7 20 -20 0 -15 7 -20 25 -20
18 0 25 5 25 20 0 13 7 20 20 20 13 0 20 -7 20 -20 0 -16 7 -20 30 -20 23 0
30 4 30 20 0 13 7 20 20 20 13 0 20 -7 20 -20 0 -15 7 -20 25 -20 18 0 25 5
25 20 0 13 7 20 20 20 13 0 20 -7 20 -20 0 -15 7 -20 25 -20 18 0 25 5 25 20
0 13 7 20 20 20 13 0 20 -7 20 -20 0 -15 7 -20 25 -20 18 0 25 5 25 20 0 13 7
20 20 20 13 0 20 -7 20 -20 0 -16 7 -20 30 -20 23 0 30 4 30 20 0 13 7 20 20
20 13 0 20 -7 20 -20 0 -15 7 -20 25 -20 18 0 25 5 25 20 0 13 7 20 20 20 13
0 20 -7 20 -20 0 -15 7 -20 25 -20 18 0 25 5 25 20 0 13 7 20 20 20 13 0 20
-7 20 -20 0 -15 7 -20 25 -20 18 0 25 5 25 20 0 13 7 20 20 20 13 0 20 -7 20
-20 0 -15 7 -20 26 -20 17 0 28 6 31 20 3 11 14 20 24 20 12 0 19 -7 19 -20 0
-15 7 -20 25 -20 18 0 25 5 25 20 0 13 7 20 20 20 13 0 20 -7 20 -20 0 -15 7
-20 25 -20 18 0 25 5 25 20 0 13 7 20 20 20 13 0 20 -7 20 -20 0 -15 7 -20 25
-20 18 0 25 5 25 20 0 13 7 20 20 20 13 0 20 -7 20 -20 0 -15 7 -20 25 -20 18
0 25 5 25 20 0 13 7 20 20 20 13 0 20 -7 20 -20 0 -16 7 -20 30 -20 23 0 30 4
30 20 0 13 7 20 20 20 13 0 20 -7 20 -20 0 -15 7 -20 25 -20 18 0 25 5 25 20
0 13 7 20 20 20 13 0 20 -7 20 -20 0 -15 7 -20 25 -20 18 0 25 5 25 20 0 13 7
20 20 20 13 0 20 -7 20 -20 0 -15 7 -20 25 -20 18 0 25 5 25 20 0 13 7 20 20
20 13 0 20 -7 20 -20 0 -16 7 -20 30 -20 23 0 30 4 30 20 0 11 7 20 15 20 8 0
15 -9 15 -20 0 -15 7 -20 25 -20 18 0 25 -5 25 -20 0 -20 -7 -20 -1265 -20
-1258 0 -1265 0 -1265 20 0 15 7 20 25 20 18 0 25 5 25 20 0 11 6 20 14 20 7
0 16 -9 19 -20z m14027 0 c0 -16 7 -20 30 -20 23 0 30 4 30 20 0 13 7 20 20
20 13 0 20 -7 20 -20 0 -15 7 -20 25 -20 18 0 25 5 25 20 0 13 7 20 20 20 13
0 20 -7 20 -20 0 -15 7 -20 25 -20 18 0 25 5 25 20 0 13 7 20 20 20 13 0 20
-7 20 -20 0 -15 7 -20 25 -20 18 0 25 5 25 20 0 13 7 20 20 20 13 0 20 -7 20
-20 0 -16 7 -20 30 -20 23 0 30 4 30 20 0 13 7 20 20 20 13 0 20 -7 20 -20 0
-15 7 -20 25 -20 18 0 25 5 25 20 0 13 7 20 20 20 13 0 20 -7 20 -20 0 -15 7
-20 25 -20 18 0 25 5 25 20 0 13 7 20 20 20 13 0 20 -7 20 -20 0 -15 7 -20 25
-20 18 0 25 5 25 20 0 13 7 20 20 20 13 0 20 -7 20 -20 0 -15 7 -20 25 -20 18
0 25 5 25 20 0 13 7 20 19 20 10 0 21 -9 24 -20 3 -14 14 -20 31 -20 19 0 26
5 26 20 0 13 7 20 20 20 13 0 20 -7 20 -20 0 -15 7 -20 25 -20 18 0 25 5 25
20 0 13 7 20 20 20 13 0 20 -7 20 -20 0 -15 7 -20 25 -20 18 0 25 5 25 20 0
13 7 20 20 20 13 0 20 -7 20 -20 0 -15 7 -20 25 -20 18 0 25 5 25 20 0 13 7
20 20 20 13 0 20 -7 20 -20 0 -16 7 -20 30 -20 23 0 30 4 30 20 0 13 7 20 20
20 13 0 20 -7 20 -20 0 -15 7 -20 25 -20 18 0 25 5 25 20 0 13 7 20 20 20 13
0 20 -7 20 -20 0 -15 7 -20 25 -20 18 0 25 5 25 20 0 13 7 20 20 20 13 0 20
-7 20 -20 0 -15 7 -20 25 -20 18 0 25 5 25 20 0 13 7 20 20 20 13 0 20 -7 20
-20 0 -16 7 -20 30 -20 23 0 30 4 30 20 0 13 7 20 20 20 13 0 20 -7 20 -20 0
-15 7 -20 25 -20 18 0 25 5 25 20 0 13 7 20 20 20 13 0 20 -7 20 -20 0 -15 7
-20 25 -20 18 0 25 5 25 20 0 13 7 20 20 20 13 0 20 -7 20 -20 0 -15 7 -20 25
-20 18 0 25 5 25 20 0 13 7 20 20 20 13 0 20 -7 20 -20 0 -16 7 -20 30 -20 23
0 30 4 30 20 0 13 7 20 20 20 13 0 20 -7 20 -20 0 -15 7 -20 25 -20 18 0 25 5
25 20 0 13 7 20 20 20 13 0 20 -7 20 -20 0 -15 7 -20 25 -20 18 0 25 5 25 20
0 13 7 20 20 20 13 0 20 -7 20 -20 0 -15 7 -20 25 -20 18 0 25 5 25 20 0 13 7
20 20 20 13 0 20 -7 20 -20 0 -15 7 -20 26 -20 17 0 28 6 31 20 3 11 12 20 19
20 8 0 14 -9 14 -20 0 -15 7 -20 25 -20 18 0 25 -5 25 -20 0 -20 -7 -20 -1265
-20 -1258 0 -1265 0 -1265 20 0 15 7 20 25 20 18 0 25 5 25 20 0 11 7 20 15
20 8 0 15 -9 15 -20z m-11530 -115 l0 -45 -1315 0 -1315 0 0 45 0 45 1315 0
1315 0 0 -45z m14030 0 l0 -45 -1315 0 -1315 0 0 45 0 45 1315 0 1315 0 0 -45z
m-16570 -160 c0 -20 5 -25 25 -25 20 0 25 5 25 25 0 18 5 25 20 25 15 0 20 -7
20 -25 0 -20 5 -25 25 -25 20 0 25 5 25 25 0 33 37 35 42 3 2 -17 10 -23 28
-23 18 0 26 6 28 23 2 12 10 22 17 22 7 0 15 -10 17 -22 2 -17 10 -23 28 -23
18 0 26 6 28 23 5 32 42 30 42 -3 0 -20 5 -25 25 -25 20 0 25 5 25 25 0 18 5
25 20 25 15 0 20 -7 20 -25 0 -20 5 -25 25 -25 20 0 25 5 25 25 0 33 37 35 42
3 2 -17 10 -23 28 -23 18 0 26 6 28 23 2 12 10 22 17 22 7 0 15 -10 17 -22 2
-17 10 -23 28 -23 18 0 26 6 28 23 5 32 42 30 42 -3 0 -20 5 -25 25 -25 20 0
25 5 25 25 0 18 5 25 20 25 15 0 20 -7 20 -25 0 -20 5 -25 25 -25 20 0 25 5
25 25 0 33 37 35 42 3 2 -17 10 -23 28 -23 18 0 26 6 28 23 2 12 10 22 17 22
7 0 15 -10 17 -22 2 -17 10 -23 28 -23 18 0 26 6 28 23 5 32 42 30 42 -3 0
-20 5 -25 25 -25 20 0 25 5 25 25 0 18 5 25 20 25 15 0 20 -7 20 -25 0 -20 5
-25 25 -25 20 0 25 5 25 25 0 33 37 35 42 3 2 -17 10 -23 28 -23 18 0 26 6 28
23 2 12 10 22 17 22 7 0 15 -10 17 -22 2 -17 10 -23 28 -23 18 0 26 6 28 23 5
33 42 30 42 -4 0 -21 4 -25 23 -22 14 2 23 11 25 26 5 32 42 30 42 -3 0 -20 5
-25 25 -25 20 0 25 5 25 25 0 33 37 35 42 3 2 -15 11 -24 26 -26 18 -3 22 1
22 22 0 34 37 37 42 4 2 -17 10 -23 28 -23 18 0 26 6 28 23 5 33 42 30 42 -4
0 -21 4 -25 23 -22 14 2 23 11 25 26 5 32 42 30 42 -3 0 -20 5 -25 25 -25 20
0 25 5 25 25 0 18 5 25 20 25 15 0 20 -7 20 -25 0 -20 5 -25 25 -25 20 0 25 5
25 25 0 33 37 35 42 3 2 -17 10 -23 28 -23 18 0 26 6 28 23 2 12 10 22 17 22
7 0 15 -10 17 -22 2 -17 10 -23 28 -23 18 0 26 6 28 23 5 32 42 30 42 -3 0
-20 5 -25 25 -25 20 0 25 5 25 25 0 18 5 25 20 25 15 0 20 -7 20 -25 0 -20 5
-25 25 -25 20 0 25 5 25 25 0 18 5 25 20 25 15 0 20 -7 20 -25 0 -20 5 -25 25
-25 23 0 25 -4 25 -45 l0 -45 -1315 0 -1315 0 0 45 c0 41 2 45 25 45 20 0 25
5 25 25 0 18 5 25 20 25 15 0 20 -7 20 -25z m14030 0 c0 -20 5 -25 25 -25 20
0 25 5 25 25 0 18 5 25 20 25 15 0 20 -7 20 -25 0 -20 5 -25 25 -25 20 0 25 5
25 25 0 33 37 35 42 3 2 -17 10 -23 28 -23 18 0 26 6 28 23 2 12 10 22 17 22
7 0 15 -10 17 -22 2 -17 10 -23 28 -23 18 0 26 6 28 23 5 32 42 30 42 -3 0
-20 5 -25 25 -25 20 0 25 5 25 25 0 18 5 25 20 25 15 0 20 -7 20 -25 0 -20 5
-25 25 -25 20 0 25 5 25 25 0 33 37 35 42 3 2 -15 11 -24 26 -26 18 -3 22 1
22 22 0 34 37 37 42 4 2 -17 10 -23 28 -23 18 0 26 6 28 23 5 33 42 30 42 -4
0 -21 4 -25 23 -22 14 2 23 11 25 26 5 32 42 30 42 -3 0 -20 5 -25 25 -25 20
0 25 5 25 25 0 33 37 35 42 3 2 -15 11 -24 26 -26 18 -3 22 1 22 22 0 34 37
37 42 4 2 -17 10 -23 28 -23 18 0 26 6 28 23 2 12 10 22 17 22 7 0 15 -10 17
-22 2 -17 10 -23 28 -23 18 0 26 6 28 23 5 32 42 30 42 -3 0 -20 5 -25 25 -25
20 0 25 5 25 25 0 18 5 25 20 25 15 0 20 -7 20 -25 0 -20 5 -25 25 -25 20 0
25 5 25 25 0 33 37 35 42 3 2 -17 10 -23 28 -23 18 0 26 6 28 23 2 12 10 22
17 22 7 0 15 -10 17 -22 2 -17 10 -23 28 -23 18 0 26 6 28 23 5 32 42 30 42
-3 0 -20 5 -25 25 -25 20 0 25 5 25 25 0 18 5 25 20 25 15 0 20 -7 20 -25 0
-20 5 -25 25 -25 20 0 25 5 25 25 0 33 37 35 42 3 2 -17 10 -23 28 -23 18 0
26 6 28 23 2 12 10 22 17 22 7 0 15 -10 17 -22 2 -17 10 -23 28 -23 18 0 26 6
28 23 5 32 42 30 42 -3 0 -20 5 -25 25 -25 20 0 25 5 25 25 0 18 5 25 20 25
15 0 20 -7 20 -25 0 -20 5 -25 25 -25 20 0 25 5 25 25 0 33 37 35 42 3 2 -17
10 -23 28 -23 18 0 26 6 28 23 2 12 10 22 17 22 7 0 15 -10 17 -22 2 -17 10
-23 28 -23 18 0 26 6 28 23 5 32 42 30 42 -3 0 -20 5 -25 25 -25 20 0 25 5 25
25 0 18 5 25 20 25 15 0 20 -7 20 -25 0 -20 5 -25 25 -25 20 0 25 5 25 25 0
18 5 25 20 25 15 0 20 -7 20 -25 0 -20 5 -25 25 -25 23 0 25 -4 25 -45 l0 -45
-1315 0 -1315 0 0 45 c0 41 2 45 25 45 20 0 25 5 25 25 0 18 5 25 20 25 15 0
20 -7 20 -25z m-12640 -230 c0 -18 5 -25 20 -25 15 0 20 7 20 25 l0 25 190 0
190 0 0 -25 c0 -18 5 -25 20 -25 15 0 20 7 20 25 l0 25 193 0 c105 0 249 -3
320 -7 l127 -6 0 -349 0 -348 105 0 c92 0 108 -3 125 -20 11 -11 20 -24 20
-30 0 -6 28 -10 65 -10 37 0 65 -4 65 -10 0 -5 7 -10 15 -10 8 0 15 -7 15 -15
0 -13 -134 -15 -1145 -15 l-1145 0 0 25 c0 22 4 25 35 25 22 0 38 6 41 15 5
12 31 15 145 15 132 0 139 1 139 20 0 13 -7 20 -20 20 -15 0 -20 7 -20 25 0
18 5 25 20 25 15 0 20 -7 20 -25 0 -20 5 -25 25 -25 18 0 25 -5 25 -20 0 -15
7 -20 25 -20 16 0 25 -6 25 -15 0 -13 22 -15 140 -15 l140 0 0 35 c0 24 5 35
15 35 10 0 15 -11 15 -35 l0 -35 70 0 c56 0 70 3 70 15 0 8 -9 15 -20 15 -13
0 -20 7 -20 20 0 13 -7 20 -20 20 -15 0 -20 7 -20 25 0 18 5 25 20 25 15 0 20
-7 20 -25 0 -20 5 -25 25 -25 18 0 25 -5 25 -20 0 -13 7 -20 20 -20 11 0 20
-7 20 -15 0 -13 22 -15 140 -15 96 0 140 3 140 11 0 6 9 9 20 6 11 -3 20 -1
20 4 0 5 7 9 15 9 8 0 15 7 15 15 0 17 7 18 236 15 88 -1 181 1 207 5 l47 7 0
164 c0 157 1 164 20 164 13 0 20 7 20 20 0 19 -7 20 -217 20 -120 0 -235 3
-255 6 l-38 7 0 113 c0 105 -2 114 -19 114 -23 0 -31 -40 -31 -158 l0 -82
-272 2 -273 3 -3 118 c-2 109 -4 117 -22 117 -12 0 -20 -7 -21 -17 -1 -10 -3
-60 -5 -112 -2 -52 -6 -97 -10 -100 -3 -3 -116 -7 -250 -9 -234 -3 -244 -4
-244 -23 0 -12 7 -19 20 -19 19 0 20 -7 20 -140 0 -133 1 -140 20 -140 13 0
20 -7 20 -20 0 -13 -7 -20 -20 -20 -13 0 -20 -7 -20 -20 0 -17 -7 -20 -40 -20
l-40 0 -2 343 -3 342 -22 3 c-13 2 -23 10 -23 17 0 16 63 19 458 23 l232 2 0
-25z m13240 0 c0 -18 5 -25 20 -25 15 0 20 7 20 25 l0 25 190 0 190 0 0 -25
c0 -18 5 -25 20 -25 15 0 20 7 20 25 l0 25 178 0 c293 0 512 -11 512 -26 0 -7
-10 -14 -22 -16 l-23 -3 -3 -337 -2 -338 30 0 c20 0 30 -5 30 -15 0 -11 11
-15 40 -15 36 0 40 -2 40 -25 l0 -25 -1145 0 c-630 0 -1145 2 -1145 5 0 3 9
14 20 25 16 16 33 20 80 20 47 0 60 3 60 15 0 8 7 15 15 15 8 0 15 5 15 10 0
6 43 10 110 10 l110 0 0 345 0 344 88 4 c48 1 192 4 320 5 l232 2 0 -25z
m-14540 0 c0 -9 -9 -15 -25 -15 l-25 0 0 -765 c0 -673 -2 -765 -15 -765 -13 0
-15 24 -15 160 l0 160 -25 0 -25 0 0 620 0 620 65 0 c51 0 65 -3 65 -15z
m16430 -605 l0 -620 -25 0 -25 0 0 -160 c0 -136 -2 -160 -15 -160 -13 0 -15
92 -15 765 l0 765 -25 0 c-16 0 -25 6 -25 15 0 12 14 15 65 15 l65 0 0 -620z
m-15870 490 l0 -50 -255 0 -255 0 0 50 0 50 255 0 255 0 0 -50z m15690 0 l0
-50 -255 0 -255 0 0 50 0 50 255 0 255 0 0 -50z m-12490 -95 l0 -85 -280 0
-280 0 0 85 0 85 280 0 280 0 0 -85z m9340 0 l0 -85 -280 0 -280 0 0 85 0 85
280 0 280 0 0 -85z m-7610 -149 c0 -7 -14 -16 -31 -20 -17 -3 -357 -6 -755 -6
-717 0 -724 0 -724 20 0 20 7 20 755 20 634 0 755 -2 755 -14z m6830 -6 c0
-20 -7 -20 -724 -20 -398 0 -738 3 -755 6 -17 4 -31 13 -31 20 0 12 121 14
755 14 748 0 755 0 755 -20z m-8300 -170 c0 -53 2 -60 20 -60 18 0 20 7 20 60
l0 60 45 0 45 0 0 -40 c0 -33 3 -40 20 -40 17 0 20 7 20 40 l0 40 45 0 45 0 0
-60 c0 -53 2 -60 20 -60 18 0 20 7 20 60 l0 60 45 0 45 0 0 -40 c0 -36 3 -40
25 -40 23 0 25 4 25 40 0 29 4 40 15 40 13 0 15 -33 15 -235 l0 -235 25 0 c18
0 25 5 25 20 0 13 -7 20 -20 20 -13 0 -20 7 -20 20 0 18 7 20 85 20 78 0 85
-2 85 -20 0 -13 -7 -20 -20 -20 -13 0 -20 -7 -20 -20 0 -18 7 -20 80 -20 64 0
80 -3 80 -15 0 -8 -9 -15 -20 -15 -11 0 -20 -4 -20 -10 0 -12 -767 -14 -772
-2 -2 4 -2 121 0 260 3 241 4 252 23 252 17 0 19 -7 19 -60z m950 0 c0 -53 2
-60 20 -60 18 0 20 7 20 60 l0 60 50 0 50 0 0 -40 c0 -29 4 -40 15 -40 11 0
15 11 15 40 l0 40 50 0 50 0 0 -60 c0 -47 3 -60 15 -60 12 0 15 13 15 60 l0
60 50 0 50 0 0 -40 c0 -33 3 -40 20 -40 17 0 20 7 20 40 0 33 3 40 20 40 19 0
20 -7 20 -235 0 -228 -1 -235 -20 -235 -13 0 -20 7 -20 20 0 20 -7 20 -290 20
-251 0 -290 -2 -290 -15 0 -8 -7 -15 -15 -15 -8 0 -15 7 -15 15 0 8 -9 15 -20
15 -13 0 -20 7 -20 20 0 18 7 20 85 20 l85 0 0 195 c0 188 1 195 20 195 18 0
20 -7 20 -60z m5920 20 c0 -33 3 -40 20 -40 17 0 20 7 20 40 l0 40 50 0 50 0
0 -60 c0 -47 3 -60 15 -60 12 0 15 13 15 60 l0 60 50 0 50 0 0 -40 c0 -29 4
-40 15 -40 11 0 15 11 15 40 l0 40 50 0 50 0 0 -60 c0 -53 2 -60 20 -60 18 0
20 7 20 60 0 53 2 60 20 60 19 0 20 -7 20 -195 l0 -195 85 0 c78 0 85 -2 85
-20 0 -13 -7 -20 -20 -20 -11 0 -20 -7 -20 -15 0 -8 -7 -15 -15 -15 -8 0 -15
7 -15 15 0 13 -39 15 -290 15 -283 0 -290 0 -290 -20 0 -13 -7 -20 -20 -20
-19 0 -20 7 -20 235 0 228 1 235 20 235 17 0 20 -7 20 -40z m950 0 c0 -36 3
-40 25 -40 23 0 25 4 25 40 l0 40 45 0 45 0 0 -60 c0 -53 2 -60 20 -60 18 0
20 7 20 60 l0 60 45 0 45 0 0 -40 c0 -33 3 -40 20 -40 17 0 20 7 20 40 l0 40
45 0 45 0 0 -60 c0 -53 2 -60 20 -60 18 0 20 7 20 60 0 53 2 60 19 60 19 0 20
-11 23 -252 2 -139 2 -256 0 -261 -5 -11 -772 -9 -772 3 0 6 -9 10 -20 10 -11
0 -20 7 -20 15 0 12 16 15 80 15 73 0 80 2 80 20 0 13 -7 20 -20 20 -13 0 -20
7 -20 20 0 18 7 20 85 20 78 0 85 -2 85 -20 0 -13 -7 -20 -20 -20 -13 0 -20
-7 -20 -20 0 -15 7 -20 25 -20 l25 0 0 235 c0 202 2 235 15 235 11 0 15 -11
15 -40z m-11700 -40 c0 -15 7 -20 25 -20 20 0 25 -5 25 -25 0 -18 5 -25 19
-25 13 0 21 -8 23 -22 2 -15 11 -24 26 -26 14 -2 22 -10 22 -23 0 -17 8 -19
95 -19 l95 0 0 -90 c0 -83 1 -90 20 -90 16 0 20 -7 20 -31 0 -26 -3 -30 -22
-27 -15 2 -24 11 -26 26 -2 14 -10 22 -23 22 -14 0 -19 7 -19 25 0 24 -2 25
-70 25 -62 0 -70 -2 -70 -19 0 -13 8 -21 23 -23 14 -2 23 -11 25 -25 2 -14 11
-23 25 -25 14 -2 23 -11 25 -25 3 -21 9 -23 68 -23 l64 0 0 -255 0 -255 -205
0 -205 0 0 115 0 115 45 0 45 0 0 -65 0 -65 45 0 45 0 0 135 0 135 45 0 c38 0
45 3 45 19 0 13 -8 21 -22 23 -15 2 -24 11 -26 26 -2 14 -10 22 -23 22 -14 0
-19 7 -19 25 0 20 -5 25 -25 25 -18 0 -25 5 -25 20 0 13 -7 20 -20 20 -15 0
-20 7 -20 25 0 20 -5 25 -25 25 -20 0 -25 5 -25 25 0 18 -5 25 -20 25 -18 0
-20 7 -20 70 l0 70 65 0 c58 0 65 2 65 20 0 13 -7 20 -20 20 -15 0 -20 7 -20
25 0 20 -5 25 -25 25 -20 0 -25 5 -25 25 0 18 -5 25 -20 25 -13 0 -20 7 -20
20 0 13 7 20 20 20 13 0 20 -7 20 -20z m16060 0 c0 -13 -7 -20 -20 -20 -15 0
-20 -7 -20 -25 0 -20 -5 -25 -25 -25 -20 0 -25 -5 -25 -25 0 -18 -5 -25 -20
-25 -13 0 -20 -7 -20 -20 0 -18 7 -20 65 -20 l65 0 0 -70 c0 -63 -2 -70 -20
-70 -15 0 -20 -7 -20 -25 0 -20 -5 -25 -25 -25 -20 0 -25 -5 -25 -25 0 -18 -5
-25 -20 -25 -13 0 -20 -7 -20 -20 0 -15 -7 -20 -25 -20 -20 0 -25 -5 -25 -25
0 -18 -5 -25 -19 -25 -13 0 -21 -8 -23 -22 -2 -15 -11 -24 -25 -26 -15 -2 -23
-10 -23 -23 0 -16 7 -19 45 -19 l45 0 0 -135 0 -135 45 0 45 0 0 65 0 65 45 0
45 0 0 -115 0 -115 -205 0 -205 0 0 255 0 255 64 0 c59 0 65 2 68 23 2 14 11
23 25 25 14 2 23 11 25 25 2 14 11 23 26 25 14 2 22 10 22 23 0 17 -8 19 -70
19 -68 0 -70 -1 -70 -25 0 -18 -5 -25 -19 -25 -13 0 -21 -8 -23 -22 -2 -15
-11 -24 -25 -26 -20 -3 -23 1 -23 27 0 24 4 31 20 31 19 0 20 7 20 90 l0 90
95 0 c87 0 95 2 95 19 0 13 8 21 23 23 14 2 23 11 25 26 2 14 10 22 23 22 14
0 19 7 19 25 0 20 5 25 25 25 18 0 25 5 25 20 0 13 7 20 20 20 13 0 20 -7 20
-20z m-14400 -90 c0 -13 -7 -20 -20 -20 -13 0 -20 7 -20 20 0 13 7 20 20 20
13 0 20 -7 20 -20z m98 -2 c-2 -15 -10 -23 -23 -23 -13 0 -21 8 -23 23 -3 18
1 22 23 22 22 0 26 -4 23 -22z m6782 -97 c0 -17 -12 -19 -130 -26 -71 -4 -188
-4 -260 0 -118 7 -130 9 -130 26 0 18 13 19 260 19 247 0 260 -1 260 -19z
m100 -1 c0 -13 -7 -20 -20 -20 -13 0 -20 7 -20 20 0 13 7 20 20 20 13 0 20 -7
20 -20z m6970 -285 l0 -225 -45 0 c-25 0 -45 5 -45 10 0 6 -48 10 -125 10 -77
0 -125 -4 -125 -10 0 -7 -332 -10 -975 -10 -643 0 -975 3 -975 10 0 6 7 10 15
10 12 0 15 18 15 105 0 87 3 105 15 105 12 0 15 19 15 110 l0 110 1115 0 1115
0 0 -225z m-9990 190 c0 -23 -3 -25 -50 -25 l-50 0 0 -44 0 -45 -47 -3 c-41
-3 -48 -6 -51 -25 -3 -19 1 -23 22 -23 21 0 26 -5 26 -25 0 -23 -4 -25 -45
-25 -38 0 -45 3 -45 20 0 11 -4 20 -10 20 -5 0 -10 6 -10 14 0 8 -7 16 -15 20
-9 3 -15 19 -15 41 l0 35 50 0 c43 0 50 3 50 20 0 13 7 20 20 20 15 0 20 7 20
25 0 24 2 25 75 25 73 0 75 -1 75 -25z m4930 0 c0 -18 5 -25 20 -25 13 0 20
-7 20 -20 0 -17 7 -20 50 -20 l50 0 0 -35 c0 -22 -6 -38 -15 -41 -8 -4 -15
-12 -15 -20 0 -8 -4 -14 -10 -14 -5 0 -10 -9 -10 -20 0 -17 -7 -20 -45 -20
-41 0 -45 2 -45 25 0 20 5 25 26 25 21 0 25 4 22 23 -3 19 -10 22 -50 25 l-48
3 0 45 0 44 -50 0 c-47 0 -50 2 -50 25 0 24 2 25 75 25 73 0 75 -1 75 -25z
m-7910 -90 c0 -87 3 -105 15 -105 12 0 15 -19 15 -110 0 -91 3 -110 15 -110 8
0 15 -4 15 -10 0 -7 -332 -10 -975 -10 -860 0 -975 2 -975 15 0 13 -21 15
-125 15 -104 0 -125 -2 -125 -15 0 -11 -12 -15 -45 -15 l-45 0 0 225 0 225
1115 0 1115 0 0 -105z m4096 65 c8 0 14 -9 14 -20 0 -15 7 -20 25 -20 18 0 25
5 25 20 0 15 7 20 25 20 18 0 25 -5 25 -20 0 -15 -7 -20 -25 -20 -21 0 -25 -5
-25 -31 0 -30 -2 -31 -31 -25 -17 3 -40 6 -50 6 -14 0 -19 7 -19 25 0 23 -4
25 -45 25 -38 0 -45 3 -45 19 0 22 34 32 84 25 16 -2 35 -4 42 -4z m2660 0 c8
0 14 -9 14 -20 0 -17 -7 -20 -45 -20 -41 0 -45 -2 -45 -25 0 -18 -5 -25 -19
-25 -10 0 -33 -3 -50 -6 -29 -6 -31 -5 -31 25 0 26 -4 31 -25 31 -18 0 -25 5
-25 20 0 15 7 20 25 20 18 0 25 -5 25 -20 0 -15 7 -20 25 -20 18 0 25 5 25 19
0 22 34 32 84 25 16 -2 35 -4 42 -4z m-3426 -20 c0 -17 7 -20 45 -20 l45 0 0
-50 0 -50 50 0 c47 0 50 2 50 25 0 23 3 25 50 25 47 0 50 2 50 25 0 23 3 25
50 25 l50 0 0 -75 c0 -73 1 -75 25 -75 20 0 25 -5 25 -25 0 -23 3 -25 50 -25
l50 0 0 -45 0 -45 -50 0 -50 0 0 45 c0 41 -2 45 -25 45 -20 0 -25 5 -25 25 0
20 -5 25 -25 25 -20 0 -25 -5 -25 -25 0 -20 -5 -25 -25 -25 -20 0 -25 5 -25
25 l0 25 -100 0 -100 0 0 25 c0 23 -4 25 -45 25 l-45 0 0 50 0 50 -50 0 c-43
0 -50 3 -50 20 0 17 7 20 50 20 43 0 50 -3 50 -20z m2570 -5 l0 -25 -260 0
-260 0 0 25 0 25 260 0 260 0 0 -25z m100 0 c0 -18 -5 -25 -20 -25 -15 0 -20
7 -20 25 0 18 5 25 20 25 15 0 20 -7 20 -25z m1510 5 c0 -17 -7 -20 -50 -20
l-50 0 0 -50 0 -50 -45 0 c-41 0 -45 -2 -45 -25 l0 -25 -100 0 -100 0 0 -25
c0 -20 -5 -25 -25 -25 -20 0 -25 5 -25 25 0 20 -5 25 -25 25 -20 0 -25 -5 -25
-25 0 -20 -5 -25 -25 -25 -23 0 -25 -4 -25 -45 l0 -45 -50 0 -50 0 0 45 0 45
50 0 c47 0 50 2 50 25 0 20 5 25 25 25 24 0 25 2 25 75 l0 75 50 0 c47 0 50
-2 50 -25 0 -23 3 -25 50 -25 47 0 50 -2 50 -25 0 -23 3 -25 50 -25 l50 0 0
50 0 50 45 0 c38 0 45 3 45 20 0 17 7 20 50 20 43 0 50 -3 50 -20z m3190 0 c0
-11 -4 -20 -10 -20 -5 0 -10 -18 -10 -40 0 -29 -4 -40 -15 -40 -8 0 -15 -7
-15 -15 0 -8 -4 -15 -10 -15 -6 0 -10 28 -10 65 0 51 3 65 15 65 8 0 15 5 15
10 0 6 9 10 20 10 13 0 20 -7 20 -20z m-10620 -5 c0 -8 7 -15 15 -15 12 0 15
-13 15 -60 0 -33 -4 -60 -10 -60 -5 0 -10 5 -10 10 0 6 -7 10 -15 10 -11 0
-15 11 -15 40 0 22 -4 40 -10 40 -5 0 -10 11 -10 25 0 18 5 25 20 25 11 0 20
-7 20 -15z m3100 -40 c0 -23 -3 -25 -50 -25 l-50 0 0 -50 0 -50 -75 0 -75 0 0
-40 0 -40 -45 0 -45 0 0 40 0 40 45 0 45 0 0 50 0 50 50 0 c47 0 50 2 50 25 0
24 2 25 75 25 73 0 75 -1 75 -25z m4530 0 c0 -23 3 -25 50 -25 l50 0 0 -50 0
-50 45 0 45 0 0 -40 0 -40 -45 0 -45 0 0 40 0 40 -75 0 -75 0 0 50 0 50 -50 0
c-47 0 -50 2 -50 25 0 24 2 25 75 25 73 0 75 -1 75 -25z m-4432 -52 c3 -19 -1
-23 -22 -23 -23 0 -25 -4 -28 -47 l-3 -48 -47 -3 c-34 -2 -48 -7 -48 -18 0 -8
-10 -14 -25 -14 -16 0 -25 6 -25 15 0 9 9 15 25 15 23 0 25 3 25 50 l0 50 50
0 c47 0 50 2 50 26 0 21 4 25 23 22 14 -2 23 -11 25 -25z m540 0 c3 -19 -1
-23 -22 -23 -21 0 -26 5 -26 26 0 21 4 25 23 22 14 -2 23 -11 25 -25z m152 2
c0 -23 -3 -25 -50 -25 -47 0 -50 2 -50 25 0 23 3 25 50 25 47 0 50 -2 50 -25z
m340 0 c0 -23 3 -25 50 -25 54 0 54 0 44 -62 -5 -28 -11 -38 -25 -38 -16 0
-19 -8 -19 -45 l0 -45 -37 0 c-21 0 -55 -3 -75 -6 l-38 -7 0 77 c0 74 -1 76
-25 76 -20 0 -25 -5 -25 -26 0 -24 -2 -25 -47 -22 l-48 3 -3 48 -3 47 75 0
c74 0 76 -1 76 -25 0 -23 3 -25 50 -25 47 0 50 2 50 25 0 20 -5 25 -25 25 -20
0 -25 5 -25 25 0 20 5 25 25 25 20 0 25 -5 25 -25z m2170 0 c0 -20 -5 -25 -25
-25 -20 0 -25 -5 -25 -25 0 -23 3 -25 50 -25 47 0 50 2 50 25 0 24 2 25 76 25
l75 0 -3 -47 -3 -48 -47 -3 c-46 -3 -48 -2 -48 22 0 21 -5 26 -25 26 -24 0
-25 -2 -25 -76 l0 -77 -37 7 c-21 3 -55 6 -75 6 l-38 0 0 45 c0 38 -3 45 -20
45 -11 0 -20 6 -20 13 0 6 -3 29 -6 50 l-7 37 52 0 c48 0 51 2 51 25 0 20 5
25 25 25 20 0 25 -5 25 -25z m390 0 c0 -23 -3 -25 -50 -25 -47 0 -50 2 -50 25
0 23 3 25 50 25 47 0 50 -2 50 -25z m100 0 c0 -20 -5 -25 -25 -25 -18 0 -25 5
-25 18 0 24 8 32 32 32 13 0 18 -7 18 -25z m540 0 c0 -23 3 -25 50 -25 l50 0
0 -50 c0 -47 2 -50 25 -50 16 0 25 -6 25 -15 0 -9 -9 -15 -25 -15 -15 0 -25 6
-25 14 0 11 -14 16 -47 18 l-48 3 -3 48 c-3 42 -5 47 -28 47 -17 0 -24 6 -24
18 0 24 8 32 32 32 13 0 18 -7 18 -25z m-1610 -54 c0 -17 -12 -19 -130 -26
-71 -4 -188 -4 -260 0 -118 7 -130 9 -130 26 0 18 13 19 260 19 247 0 260 -1
260 -19z m100 -1 c0 -13 -7 -20 -20 -20 -13 0 -20 7 -20 20 0 13 7 20 20 20
13 0 20 -7 20 -20z m-4070 -10 c0 -5 -9 -10 -20 -10 -11 0 -20 -4 -20 -10 0
-6 -130 -10 -370 -10 -363 0 -370 0 -370 20 0 20 7 20 390 20 253 0 390 -4
390 -10z m7660 -10 c0 -20 -7 -20 -370 -20 -240 0 -370 4 -370 10 0 6 -9 10
-20 10 -11 0 -20 5 -20 10 0 6 137 10 390 10 383 0 390 0 390 -20z m-6220 -25
c0 -23 -4 -25 -45 -25 -41 0 -45 2 -45 25 0 23 4 25 45 25 41 0 45 -2 45 -25z
m640 -25 l0 -50 -45 0 -45 0 0 50 0 50 45 0 45 0 0 -50z m2810 0 l0 -50 -45 0
-45 0 0 50 0 50 45 0 45 0 0 -50z m640 25 c0 -23 -4 -25 -45 -25 -41 0 -45 2
-45 25 0 23 4 25 45 25 41 0 45 -2 45 -25z m-3890 -50 c0 -25 0 -25 -95 -25
-95 0 -95 0 -95 25 0 25 0 25 95 25 95 0 95 0 95 -25z m930 0 c0 -23 -4 -25
-45 -25 -41 0 -45 2 -45 25 0 23 4 25 45 25 41 0 45 -2 45 -25z m1830 0 c0
-23 -4 -25 -45 -25 -41 0 -45 2 -45 25 0 23 4 25 45 25 41 0 45 -2 45 -25z
m1030 0 c0 -25 0 -25 -95 -25 -95 0 -95 0 -95 25 0 25 0 25 95 25 95 0 95 0
95 -25z m-4030 -49 c0 -13 7 -26 15 -30 8 -3 15 -12 15 -21 0 -8 5 -15 10 -15
6 0 10 9 10 20 0 13 7 20 20 20 15 0 20 -7 20 -29 0 -16 3 -43 6 -60 l7 -31
-57 0 c-49 0 -56 2 -56 20 0 13 -7 20 -20 20 -11 0 -20 7 -20 15 0 8 -9 15
-20 15 -15 0 -20 7 -20 25 0 18 5 25 20 25 13 0 20 7 20 19 0 16 -8 21 -42 24
-31 2 -24 4 25 5 65 2 67 1 67 -22z m4173 17 c-35 -3 -43 -8 -43 -24 0 -12 7
-19 20 -19 15 0 20 -7 20 -25 0 -18 -5 -25 -20 -25 -11 0 -20 -7 -20 -15 0 -8
-9 -15 -20 -15 -13 0 -20 -7 -20 -20 0 -18 -7 -20 -56 -20 l-56 0 6 31 c3 17
6 44 6 60 0 22 5 29 20 29 13 0 20 -7 20 -20 0 -11 5 -20 10 -20 6 0 10 7 10
15 0 9 7 18 15 21 8 4 15 17 15 30 0 23 2 24 68 22 48 -1 55 -3 25 -5z m-5723
-33 c0 -13 -7 -20 -20 -20 -13 0 -20 -7 -20 -20 0 -18 -7 -20 -55 -20 -52 0
-55 1 -55 25 0 16 6 25 15 25 8 0 15 7 15 15 0 12 13 15 60 15 53 0 60 -2 60
-20z m7300 5 c0 -8 7 -15 15 -15 9 0 15 -9 15 -25 0 -24 -3 -25 -55 -25 -48 0
-55 2 -55 20 0 13 -7 20 -20 20 -13 0 -20 7 -20 20 0 18 7 20 60 20 47 0 60
-3 60 -15z m-4680 -35 c0 -13 -7 -20 -20 -20 -13 0 -20 7 -20 20 0 13 7 20 20
20 13 0 20 -7 20 -20z m1750 0 c0 -20 -7 -20 -385 -20 -378 0 -385 0 -385 20
0 20 7 20 385 20 378 0 385 0 385 -20z m100 0 c0 -15 -7 -20 -25 -20 -18 0
-25 5 -25 20 0 15 7 20 25 20 18 0 25 -5 25 -20z m130 0 c0 -11 -7 -20 -15
-20 -8 0 -15 9 -15 20 0 11 7 20 15 20 8 0 15 -9 15 -20z m-2070 -49 c0 -17 8
-20 48 -23 40 -3 47 -6 50 -25 3 -21 0 -23 -47 -23 -48 0 -51 2 -51 25 0 20
-5 25 -25 25 -18 0 -25 5 -25 20 0 15 7 20 25 20 18 0 25 -5 25 -19z m2170 -1
c0 -15 -7 -20 -25 -20 -20 0 -25 -5 -25 -25 0 -23 -3 -25 -50 -25 -42 0 -50 3
-50 19 0 22 19 31 66 31 27 0 34 4 34 20 0 15 7 20 25 20 18 0 25 -5 25 -20z
m-2860 -45 c0 -23 -3 -25 -50 -25 -42 0 -50 3 -50 18 0 27 9 32 57 32 39 0 43
-2 43 -25z m3598 -2 c3 -21 0 -23 -47 -23 -48 0 -51 2 -51 26 0 24 2 25 48 22
40 -3 47 -6 50 -25z m-2718 -3 c0 -13 -7 -20 -20 -20 -13 0 -20 7 -20 20 0 13
7 20 20 20 13 0 20 -7 20 -20z m1780 0 c0 -13 -7 -20 -20 -20 -13 0 -20 7 -20
20 0 13 7 20 20 20 13 0 20 -7 20 -20z m4850 0 c0 -5 -7 -10 -15 -10 -8 0 -15
-7 -15 -15 0 -13 -30 -15 -210 -15 l-210 0 0 25 0 25 225 0 c143 0 225 -4 225
-10z m1150 0 c0 -5 -7 -10 -15 -10 -8 0 -15 -7 -15 -15 0 -13 -57 -15 -450
-15 -393 0 -450 2 -450 15 0 8 -4 15 -10 15 -5 0 -10 5 -10 10 0 7 165 10 475
10 310 0 475 -3 475 -10z m350 -15 c0 -24 -2 -25 -65 -25 -51 0 -65 3 -65 15
0 8 -7 15 -15 15 -8 0 -15 5 -15 10 0 6 33 10 80 10 79 0 80 0 80 -25z m340 0
c0 -23 -4 -25 -45 -25 -25 0 -45 4 -45 9 0 5 -3 16 -6 25 -5 13 2 16 45 16 48
0 51 -2 51 -25z m-15100 1 c0 -25 -16 -36 -56 -36 -37 0 -44 3 -44 20 0 17 7
20 50 20 28 0 50 -2 50 -4z m400 -6 c0 -5 -7 -10 -15 -10 -8 0 -15 -4 -15 -10
0 -6 -28 -10 -65 -10 -58 0 -65 2 -65 20 0 18 7 20 80 20 47 0 80 -4 80 -10z
m1140 4 c0 -3 -6 -12 -14 -20 -12 -12 -87 -14 -460 -14 -291 0 -446 3 -446 10
0 6 -7 10 -15 10 -8 0 -15 5 -15 10 0 7 165 10 475 10 261 0 475 -3 475 -6z
m650 -14 c0 -19 -7 -20 -210 -20 -133 0 -210 4 -210 10 0 6 -7 10 -15 10 -8 0
-15 5 -15 10 0 6 82 10 225 10 218 0 225 -1 225 -20z m11020 -95 l0 -25 -170
0 c-144 0 -170 2 -170 15 0 8 -7 15 -15 15 -8 0 -15 5 -15 10 0 6 68 10 185
10 l185 0 0 -25z m1150 0 c0 -14 5 -25 10 -25 6 0 10 -13 10 -29 0 -20 6 -31
18 -34 9 -3 -38 -5 -105 -6 l-123 -1 0 35 0 35 -330 0 -330 0 0 25 0 25 425 0
425 0 0 -25z m740 15 c0 -5 -4 -10 -10 -10 -5 0 -10 -7 -10 -15 0 -11 -12 -15
-45 -15 -45 0 -45 0 -45 -35 l0 -35 -197 1 c-109 1 -190 3 -180 6 11 3 17 14
17 34 0 19 5 29 15 29 9 0 15 9 15 25 l0 25 220 0 c140 0 220 -4 220 -10z
m-14760 -25 l0 -25 -210 0 c-180 0 -210 2 -210 15 0 8 -4 15 -10 15 -5 0 -10
5 -10 10 0 6 80 10 220 10 l220 0 0 -25z m1150 0 l0 -25 -425 0 -425 0 0 25 0
25 425 0 425 0 0 -25z m670 20 c0 -3 -9 -14 -20 -25 -18 -18 -33 -20 -185 -20
l-165 0 0 25 0 25 185 0 c102 0 185 -2 185 -5z m-1790 -80 l0 -25 -180 0 -180
0 0 25 0 25 180 0 180 0 0 -25z m460 0 l0 -25 -105 0 -105 0 0 25 0 25 105 0
105 0 0 -25z"/>
<path d="M16610 9515 l0 -35 80 0 80 0 0 35 0 35 -80 0 -80 0 0 -35z"/>
<path d="M2640 8265 c0 -8 7 -15 15 -15 8 0 15 7 15 15 0 8 -7 15 -15 15 -8 0
-15 -7 -15 -15z"/>
<path d="M2600 8185 c0 -42 3 -55 15 -55 12 0 15 13 15 55 0 42 -3 55 -15 55
-12 0 -15 -13 -15 -55z"/>
<path d="M2880 7990 c0 -16 7 -20 35 -20 28 0 35 4 35 20 0 16 -7 20 -35 20
-28 0 -35 -4 -35 -20z"/>
<path d="M2800 7950 c0 -16 7 -20 35 -20 28 0 35 4 35 20 0 16 -7 20 -35 20
-28 0 -35 -4 -35 -20z"/>
<path d="M17100 8265 c0 -8 7 -15 15 -15 8 0 15 7 15 15 0 8 -7 15 -15 15 -8
0 -15 -7 -15 -15z"/>
<path d="M17140 8185 c0 -42 3 -55 15 -55 12 0 15 13 15 55 0 42 -3 55 -15 55
-12 0 -15 -13 -15 -55z"/>
<path d="M16820 7990 c0 -17 7 -20 40 -20 33 0 40 3 40 20 0 17 -7 20 -40 20
-33 0 -40 -3 -40 -20z"/>
<path d="M5520 6940 l0 -300 450 0 450 0 0 300 0 300 -450 0 -450 0 0 -300z"/>
<path d="M8520 3810 l0 -150 150 0 150 0 0 150 0 150 -150 0 -150 0 0 -150z"/>
<path d="M4560 2510 l0 -130 1148 2 1147 3 3 128 3 127 -1151 0 -1150 0 0
-130z m480 70 c0 -19 -7 -20 -195 -20 -188 0 -195 1 -195 20 0 19 7 20 195 20
188 0 195 -1 195 -20z m130 0 c0 -17 -7 -20 -45 -20 -38 0 -45 3 -45 20 0 17
7 20 45 20 38 0 45 -3 45 -20z m340 0 c0 -19 -7 -20 -150 -20 -143 0 -150 1
-150 20 0 19 7 20 150 20 143 0 150 -1 150 -20z m180 -65 c0 -84 0 -85 -25
-85 -25 0 -25 1 -25 85 0 84 0 85 25 85 25 0 25 -1 25 -85z m80 65 c0 -13 -7
-20 -20 -20 -13 0 -20 7 -20 20 0 13 7 20 20 20 13 0 20 -7 20 -20z m90 -65
l0 -85 -65 0 c-58 0 -65 2 -65 20 0 17 7 20 45 20 38 0 45 3 45 19 0 13 -8 21
-22 23 -31 4 -36 36 -6 40 15 2 24 11 26 26 2 14 10 22 23 22 17 0 19 -8 19
-85z m90 20 c0 -58 2 -65 20 -65 17 0 20 7 20 40 0 33 3 40 20 40 17 0 20 -7
20 -40 0 -33 -3 -40 -20 -40 -13 0 -20 -7 -20 -20 0 -13 -7 -20 -20 -20 -13 0
-20 7 -20 20 0 15 -7 20 -25 20 -24 0 -25 2 -25 65 0 63 1 65 25 65 24 0 25
-2 25 -65z m130 45 c0 -15 -7 -20 -25 -20 -18 0 -25 5 -25 20 0 15 7 20 25 20
18 0 25 -5 25 -20z m80 -65 c0 -78 -2 -85 -20 -85 -18 0 -20 7 -20 85 0 78 2
85 20 85 18 0 20 -7 20 -85z m178 43 c-2 -35 -7 -43 -23 -43 -16 0 -21 8 -23
43 -3 39 -2 42 23 42 25 0 26 -3 23 -42z m132 -43 c0 -84 0 -85 -25 -85 -25 0
-25 1 -25 85 0 84 0 85 25 85 25 0 25 -1 25 -85z m80 20 c0 -63 1 -65 25 -65
18 0 25 -5 25 -20 0 -15 -7 -20 -25 -20 -18 0 -25 5 -25 20 0 13 -7 20 -20 20
-18 0 -20 7 -20 65 0 58 2 65 20 65 18 0 20 -7 20 -65z m220 45 c0 -17 -7 -20
-45 -20 -38 0 -45 3 -45 20 0 17 7 20 45 20 38 0 45 -3 45 -20z m-480 -90 c0
-13 -7 -20 -20 -20 -13 0 -20 -7 -20 -20 0 -13 -7 -20 -20 -20 -17 0 -20 7
-20 40 l0 40 40 0 c33 0 40 -3 40 -20z m90 -20 c0 -33 -3 -40 -20 -40 -17 0
-20 7 -20 40 0 33 3 40 20 40 17 0 20 -7 20 -40z m390 20 c0 -17 -7 -20 -45
-20 -38 0 -45 -3 -45 -20 0 -13 -7 -20 -20 -20 -13 0 -20 7 -20 20 0 13 7 20
20 20 13 0 20 7 20 20 0 17 7 20 45 20 38 0 45 -3 45 -20z m-1430 -40 c0 -18
-7 -20 -65 -20 -58 0 -65 2 -65 20 0 18 7 20 65 20 58 0 65 -2 65 -20z m170 0
c0 -18 -7 -20 -65 -20 -58 0 -65 2 -65 20 0 18 7 20 65 20 58 0 65 -2 65 -20z"/>
<path d="M12342 2513 l3 -128 1148 -3 1147 -2 0 130 0 130 -1150 0 -1151 0 3
-127z m178 67 c0 -17 -7 -20 -45 -20 -38 0 -45 3 -45 20 0 17 7 20 45 20 38 0
45 -3 45 -20z m170 -45 c0 -58 -2 -65 -20 -65 -13 0 -20 -7 -20 -20 0 -15 -7
-20 -25 -20 -18 0 -25 5 -25 20 0 15 7 20 25 20 24 0 25 2 25 65 0 58 2 65 20
65 18 0 20 -7 20 -65z m90 -20 c0 -84 0 -85 -25 -85 -25 0 -25 1 -25 85 0 84
0 85 25 85 25 0 25 -1 25 -85z m128 43 c-2 -35 -7 -43 -23 -43 -16 0 -21 8
-23 43 -3 39 -2 42 23 42 25 0 26 -3 23 -42z m172 -43 c0 -78 -2 -85 -20 -85
-18 0 -20 7 -20 85 0 78 2 85 20 85 18 0 20 -7 20 -85z m90 65 c0 -15 -7 -20
-25 -20 -18 0 -25 5 -25 20 0 15 7 20 25 20 18 0 25 -5 25 -20z m130 -45 c0
-63 -1 -65 -25 -65 -18 0 -25 -5 -25 -20 0 -13 -7 -20 -20 -20 -13 0 -20 7
-20 20 0 13 -7 20 -20 20 -17 0 -20 7 -20 40 0 33 3 40 20 40 17 0 20 -7 20
-40 0 -33 3 -40 20 -40 18 0 20 7 20 65 0 63 1 65 25 65 24 0 25 -2 25 -65z
m82 43 c2 -15 11 -24 26 -26 30 -4 25 -36 -6 -40 -14 -2 -22 -10 -22 -23 0
-16 7 -19 45 -19 38 0 45 -3 45 -20 0 -18 -7 -20 -65 -20 l-65 0 0 85 c0 77 2
85 19 85 13 0 21 -8 23 -22z m88 2 c0 -13 -7 -20 -20 -20 -13 0 -20 7 -20 20
0 13 7 20 20 20 13 0 20 -7 20 -20z m90 -65 c0 -84 0 -85 -25 -85 -25 0 -25 1
-25 85 0 84 0 85 25 85 25 0 25 -1 25 -85z m430 65 c0 -19 -7 -20 -150 -20
-143 0 -150 1 -150 20 0 19 7 20 150 20 143 0 150 -1 150 -20z m130 0 c0 -17
-7 -20 -45 -20 -38 0 -45 3 -45 20 0 17 7 20 45 20 38 0 45 -3 45 -20z m430 0
c0 -19 -7 -20 -195 -20 -188 0 -195 1 -195 20 0 19 7 20 195 20 188 0 195 -1
195 -20z m-2030 -90 c0 -13 7 -20 20 -20 13 0 20 -7 20 -20 0 -13 -7 -20 -20
-20 -13 0 -20 7 -20 20 0 17 -7 20 -45 20 -38 0 -45 3 -45 20 0 17 7 20 45 20
38 0 45 -3 45 -20z m340 -20 c0 -33 -3 -40 -20 -40 -17 0 -20 7 -20 40 0 33 3
40 20 40 17 0 20 -7 20 -40z m130 0 c0 -33 -3 -40 -20 -40 -13 0 -20 7 -20 20
0 13 -7 20 -20 20 -13 0 -20 7 -20 20 0 17 7 20 40 20 l40 0 0 -40z m830 -20
c0 -18 -7 -20 -65 -20 -58 0 -65 2 -65 20 0 18 7 20 65 20 58 0 65 -2 65 -20z
m170 0 c0 -18 -7 -20 -65 -20 -58 0 -65 2 -65 20 0 18 7 20 65 20 58 0 65 -2
65 -20z"/>
<path d="M4560 2100 c0 -13 7 -20 20 -20 13 0 20 7 20 20 0 13 -7 20 -20 20
-13 0 -20 -7 -20 -20z"/>
<path d="M4740 2100 c0 -17 7 -20 40 -20 33 0 40 3 40 20 0 17 -7 20 -40 20
-33 0 -40 -3 -40 -20z"/>
<path d="M4950 2100 c0 -17 7 -20 40 -20 33 0 40 3 40 20 0 17 -7 20 -40 20
-33 0 -40 -3 -40 -20z"/>
<path d="M5210 2100 c0 -17 7 -20 40 -20 33 0 40 3 40 20 0 17 -7 20 -40 20
-33 0 -40 -3 -40 -20z"/>
<path d="M6120 2100 c0 -17 7 -20 40 -20 33 0 40 3 40 20 0 17 -7 20 -40 20
-33 0 -40 -3 -40 -20z"/>
<path d="M6380 2100 c0 -17 7 -20 40 -20 33 0 40 3 40 20 0 17 -7 20 -40 20
-33 0 -40 -3 -40 -20z"/>
<path d="M6600 2100 c0 -17 7 -20 40 -20 33 0 40 3 40 20 0 17 -7 20 -40 20
-33 0 -40 -3 -40 -20z"/>
<path d="M6820 2100 c0 -11 7 -20 15 -20 8 0 15 9 15 20 0 11 -7 20 -15 20 -8
0 -15 -9 -15 -20z"/>
<path d="M4520 2015 c0 -8 9 -15 20 -15 11 0 20 7 20 15 0 8 -9 15 -20 15 -11
0 -20 -7 -20 -15z"/>
<path d="M4690 2015 c0 -11 11 -15 40 -15 29 0 40 4 40 15 0 11 -11 15 -40 15
-29 0 -40 -4 -40 -15z"/>
<path d="M4910 2015 c0 -11 11 -15 40 -15 29 0 40 4 40 15 0 11 -11 15 -40 15
-29 0 -40 -4 -40 -15z"/>
<path d="M5170 2015 c0 -11 11 -15 40 -15 29 0 40 4 40 15 0 11 -11 15 -40 15
-29 0 -40 -4 -40 -15z"/>
<path d="M5470 2015 c0 -11 11 -15 40 -15 29 0 40 4 40 15 0 11 -11 15 -40 15
-29 0 -40 -4 -40 -15z"/>
<path d="M5860 2015 c0 -11 11 -15 40 -15 29 0 40 4 40 15 0 11 -11 15 -40 15
-29 0 -40 -4 -40 -15z"/>
<path d="M6170 2015 c0 -11 11 -15 40 -15 29 0 40 4 40 15 0 11 -11 15 -40 15
-29 0 -40 -4 -40 -15z"/>
<path d="M6430 2015 c0 -11 11 -15 40 -15 29 0 40 4 40 15 0 11 -11 15 -40 15
-29 0 -40 -4 -40 -15z"/>
<path d="M6640 2015 c0 -11 11 -15 40 -15 29 0 40 4 40 15 0 11 -11 15 -40 15
-29 0 -40 -4 -40 -15z"/>
<path d="M6860 2015 c0 -8 9 -15 20 -15 11 0 20 7 20 15 0 8 -9 15 -20 15 -11
0 -20 -7 -20 -15z"/>
<path d="M4480 1930 c0 -11 7 -20 15 -20 8 0 15 9 15 20 0 11 -7 20 -15 20 -8
0 -15 -9 -15 -20z"/>
<path d="M4650 1930 c0 -17 7 -20 40 -20 33 0 40 3 40 20 0 17 -7 20 -40 20
-33 0 -40 -3 -40 -20z"/>
<path d="M4870 1931 c0 -18 6 -21 41 -21 33 0 40 3 37 18 -2 12 -14 18 -41 20
-32 3 -37 0 -37 -17z"/>
<path d="M6470 1930 c0 -17 7 -20 40 -20 33 0 40 3 40 20 0 17 -7 20 -40 20
-33 0 -40 -3 -40 -20z"/>
<path d="M6690 1931 c0 -18 6 -21 41 -21 33 0 40 3 37 18 -2 12 -14 18 -41 20
-32 3 -37 0 -37 -17z"/>
<path d="M6900 1930 c0 -13 7 -20 20 -20 13 0 20 7 20 20 0 13 -7 20 -20 20
-13 0 -20 -7 -20 -20z"/>
<path d="M4430 1840 c0 -13 7 -20 20 -20 13 0 20 7 20 20 0 13 -7 20 -20 20
-13 0 -20 -7 -20 -20z"/>
<path d="M4610 1840 c0 -17 7 -20 40 -20 33 0 40 3 40 20 0 17 -7 20 -40 20
-33 0 -40 -3 -40 -20z"/>
<path d="M4820 1840 c0 -17 7 -20 40 -20 33 0 40 3 40 20 0 17 -7 20 -40 20
-33 0 -40 -3 -40 -20z"/>
<path d="M5130 1840 c0 -17 7 -20 40 -20 33 0 40 3 40 20 0 17 -7 20 -40 20
-33 0 -40 -3 -40 -20z"/>
<path d="M5430 1840 c0 -17 7 -20 40 -20 33 0 40 3 40 20 0 17 -7 20 -40 20
-33 0 -40 -3 -40 -20z"/>
<path d="M5650 1840 c0 -18 7 -20 60 -20 53 0 60 2 60 20 0 18 -7 20 -60 20
-53 0 -60 -2 -60 -20z"/>
<path d="M5910 1840 c0 -17 7 -20 40 -20 33 0 40 3 40 20 0 17 -7 20 -40 20
-33 0 -40 -3 -40 -20z"/>
<path d="M6210 1840 c0 -17 7 -20 40 -20 33 0 40 3 40 20 0 17 -7 20 -40 20
-33 0 -40 -3 -40 -20z"/>
<path d="M6510 1840 c0 -17 7 -20 40 -20 33 0 40 3 40 20 0 17 -7 20 -40 20
-33 0 -40 -3 -40 -20z"/>
<path d="M6730 1840 c0 -17 7 -20 40 -20 33 0 40 3 40 20 0 17 -7 20 -40 20
-33 0 -40 -3 -40 -20z"/>
<path d="M6950 1840 c0 -11 7 -20 15 -20 8 0 15 9 15 20 0 11 -7 20 -15 20 -8
0 -15 -9 -15 -20z"/>
<path d="M4390 1755 c0 -8 9 -15 20 -15 11 0 20 7 20 15 0 8 -9 15 -20 15 -11
0 -20 -7 -20 -15z"/>
<path d="M4560 1755 c0 -11 11 -15 40 -15 29 0 40 4 40 15 0 11 -11 15 -40 15
-29 0 -40 -4 -40 -15z"/>
<path d="M4780 1755 c0 -11 11 -15 40 -15 29 0 40 4 40 15 0 11 -11 15 -40 15
-29 0 -40 -4 -40 -15z"/>
<path d="M5080 1755 c0 -11 11 -15 40 -15 29 0 40 4 40 15 0 11 -11 15 -40 15
-29 0 -40 -4 -40 -15z"/>
<path d="M5390 1755 c0 -11 11 -15 40 -15 29 0 40 4 40 15 0 11 -11 15 -40 15
-29 0 -40 -4 -40 -15z"/>
<path d="M5950 1755 c0 -11 11 -15 40 -15 29 0 40 4 40 15 0 11 -11 15 -40 15
-29 0 -40 -4 -40 -15z"/>
<path d="M6250 1755 c0 -11 11 -15 40 -15 29 0 40 4 40 15 0 11 -11 15 -40 15
-29 0 -40 -4 -40 -15z"/>
<path d="M6560 1755 c0 -11 11 -15 40 -15 29 0 40 4 40 15 0 11 -11 15 -40 15
-29 0 -40 -4 -40 -15z"/>
<path d="M6770 1755 c0 -11 11 -15 40 -15 29 0 40 4 40 15 0 11 -11 15 -40 15
-29 0 -40 -4 -40 -15z"/>
<path d="M6990 1755 c0 -8 9 -15 20 -15 11 0 20 7 20 15 0 8 -9 15 -20 15 -11
0 -20 -7 -20 -15z"/>
<path d="M12350 2100 c0 -11 7 -20 15 -20 8 0 15 9 15 20 0 11 -7 20 -15 20
-8 0 -15 -9 -15 -20z"/>
<path d="M12520 2100 c0 -17 7 -20 40 -20 33 0 40 3 40 20 0 17 -7 20 -40 20
-33 0 -40 -3 -40 -20z"/>
<path d="M12740 2100 c0 -17 7 -20 40 -20 33 0 40 3 40 20 0 17 -7 20 -40 20
-33 0 -40 -3 -40 -20z"/>
<path d="M13000 2100 c0 -17 7 -20 40 -20 33 0 40 3 40 20 0 17 -7 20 -40 20
-33 0 -40 -3 -40 -20z"/>
<path d="M13910 2100 c0 -17 7 -20 40 -20 33 0 40 3 40 20 0 17 -7 20 -40 20
-33 0 -40 -3 -40 -20z"/>
<path d="M14170 2100 c0 -17 7 -20 40 -20 33 0 40 3 40 20 0 17 -7 20 -40 20
-33 0 -40 -3 -40 -20z"/>
<path d="M14380 2100 c0 -17 7 -20 40 -20 33 0 40 3 40 20 0 17 -7 20 -40 20
-33 0 -40 -3 -40 -20z"/>
<path d="M14600 2100 c0 -13 7 -20 20 -20 13 0 20 7 20 20 0 13 -7 20 -20 20
-13 0 -20 -7 -20 -20z"/>
<path d="M12300 2015 c0 -8 9 -15 20 -15 11 0 20 7 20 15 0 8 -9 15 -20 15
-11 0 -20 -7 -20 -15z"/>
<path d="M12480 2015 c0 -11 11 -15 40 -15 29 0 40 4 40 15 0 11 -11 15 -40
15 -29 0 -40 -4 -40 -15z"/>
<path d="M12690 2015 c0 -11 11 -15 40 -15 29 0 40 4 40 15 0 11 -11 15 -40
15 -29 0 -40 -4 -40 -15z"/>
<path d="M12950 2015 c0 -11 11 -15 40 -15 29 0 40 4 40 15 0 11 -11 15 -40
15 -29 0 -40 -4 -40 -15z"/>
<path d="M13260 2015 c0 -11 11 -15 40 -15 29 0 40 4 40 15 0 11 -11 15 -40
15 -29 0 -40 -4 -40 -15z"/>
<path d="M13650 2015 c0 -11 11 -15 40 -15 29 0 40 4 40 15 0 11 -11 15 -40
15 -29 0 -40 -4 -40 -15z"/>
<path d="M13950 2015 c0 -11 11 -15 40 -15 29 0 40 4 40 15 0 11 -11 15 -40
15 -29 0 -40 -4 -40 -15z"/>
<path d="M14210 2015 c0 -11 11 -15 40 -15 29 0 40 4 40 15 0 11 -11 15 -40
15 -29 0 -40 -4 -40 -15z"/>
<path d="M14430 2015 c0 -11 11 -15 40 -15 29 0 40 4 40 15 0 11 -11 15 -40
15 -29 0 -40 -4 -40 -15z"/>
<path d="M14640 2015 c0 -8 9 -15 20 -15 11 0 20 7 20 15 0 8 -9 15 -20 15
-11 0 -20 -7 -20 -15z"/>
<path d="M12260 1930 c0 -13 7 -20 20 -20 13 0 20 7 20 20 0 13 -7 20 -20 20
-13 0 -20 -7 -20 -20z"/>
<path d="M12437 1943 c-19 -19 -5 -33 33 -33 33 0 40 3 40 20 0 16 -7 20 -33
20 -19 0 -37 -3 -40 -7z"/>
<path d="M12650 1930 c0 -17 7 -20 40 -20 33 0 40 3 40 20 0 17 -7 20 -40 20
-33 0 -40 -3 -40 -20z"/>
<path d="M14257 1943 c-19 -19 -5 -33 33 -33 33 0 40 3 40 20 0 16 -7 20 -33
20 -19 0 -37 -3 -40 -7z"/>
<path d="M14470 1930 c0 -17 7 -20 40 -20 33 0 40 3 40 20 0 17 -7 20 -40 20
-33 0 -40 -3 -40 -20z"/>
<path d="M14690 1930 c0 -11 7 -20 15 -20 8 0 15 9 15 20 0 11 -7 20 -15 20
-8 0 -15 -9 -15 -20z"/>
<path d="M12220 1840 c0 -11 7 -20 15 -20 8 0 15 9 15 20 0 11 -7 20 -15 20
-8 0 -15 -9 -15 -20z"/>
<path d="M12390 1840 c0 -17 7 -20 40 -20 33 0 40 3 40 20 0 17 -7 20 -40 20
-33 0 -40 -3 -40 -20z"/>
<path d="M12610 1840 c0 -17 7 -20 40 -20 33 0 40 3 40 20 0 17 -7 20 -40 20
-33 0 -40 -3 -40 -20z"/>
<path d="M12910 1840 c0 -17 7 -20 40 -20 33 0 40 3 40 20 0 17 -7 20 -40 20
-33 0 -40 -3 -40 -20z"/>
<path d="M13210 1840 c0 -17 7 -20 40 -20 33 0 40 3 40 20 0 17 -7 20 -40 20
-33 0 -40 -3 -40 -20z"/>
<path d="M13430 1840 c0 -18 7 -20 60 -20 53 0 60 2 60 20 0 18 -7 20 -60 20
-53 0 -60 -2 -60 -20z"/>
<path d="M13690 1840 c0 -17 7 -20 40 -20 33 0 40 3 40 20 0 17 -7 20 -40 20
-33 0 -40 -3 -40 -20z"/>
<path d="M13990 1840 c0 -17 7 -20 40 -20 33 0 40 3 40 20 0 17 -7 20 -40 20
-33 0 -40 -3 -40 -20z"/>
<path d="M14300 1840 c0 -17 7 -20 40 -20 33 0 40 3 40 20 0 17 -7 20 -40 20
-33 0 -40 -3 -40 -20z"/>
<path d="M14510 1840 c0 -17 7 -20 40 -20 33 0 40 3 40 20 0 17 -7 20 -40 20
-33 0 -40 -3 -40 -20z"/>
<path d="M14730 1840 c0 -13 7 -20 20 -20 13 0 20 7 20 20 0 13 -7 20 -20 20
-13 0 -20 -7 -20 -20z"/>
<path d="M12170 1755 c0 -8 9 -15 20 -15 11 0 20 7 20 15 0 8 -9 15 -20 15
-11 0 -20 -7 -20 -15z"/>
<path d="M12350 1755 c0 -11 11 -15 40 -15 29 0 40 4 40 15 0 11 -11 15 -40
15 -29 0 -40 -4 -40 -15z"/>
<path d="M12560 1755 c0 -11 11 -15 40 -15 29 0 40 4 40 15 0 11 -11 15 -40
15 -29 0 -40 -4 -40 -15z"/>
<path d="M12870 1755 c0 -11 11 -15 40 -15 29 0 40 4 40 15 0 11 -11 15 -40
15 -29 0 -40 -4 -40 -15z"/>
<path d="M13170 1755 c0 -11 11 -15 40 -15 29 0 40 4 40 15 0 11 -11 15 -40
15 -29 0 -40 -4 -40 -15z"/>
<path d="M13730 1755 c0 -11 11 -15 40 -15 29 0 40 4 40 15 0 11 -11 15 -40
15 -29 0 -40 -4 -40 -15z"/>
<path d="M14040 1755 c0 -11 11 -15 40 -15 29 0 40 4 40 15 0 11 -11 15 -40
15 -29 0 -40 -4 -40 -15z"/>
<path d="M14340 1755 c0 -11 11 -15 40 -15 29 0 40 4 40 15 0 11 -11 15 -40
15 -29 0 -40 -4 -40 -15z"/>
<path d="M14560 1755 c0 -11 11 -15 40 -15 29 0 40 4 40 15 0 11 -11 15 -40
15 -29 0 -40 -4 -40 -15z"/>
<path d="M14770 1755 c0 -8 9 -15 20 -15 11 0 20 7 20 15 0 8 -9 15 -20 15
-11 0 -20 -7 -20 -15z"/>
<path d="M2700 1550 c0 -15 7 -20 25 -20 18 0 25 5 25 20 0 15 -7 20 -25 20
-18 0 -25 -5 -25 -20z"/>
<path d="M3210 1550 c0 -13 7 -20 20 -20 13 0 20 7 20 20 0 13 -7 20 -20 20
-13 0 -20 -7 -20 -20z"/>
<path d="M15950 1550 c0 -13 7 -20 20 -20 13 0 20 7 20 20 0 13 -7 20 -20 20
-13 0 -20 -7 -20 -20z"/>
<path d="M16450 1550 c0 -15 7 -20 25 -20 18 0 25 5 25 20 0 15 -7 20 -25 20
-18 0 -25 -5 -25 -20z"/>
<path d="M15900 1411 l0 -108 -37 -7 c-21 -3 -136 -6 -255 -6 -211 0 -218 -1
-218 -20 0 -13 7 -20 20 -20 19 0 20 -7 20 -165 l0 -165 214 0 213 0 -5 25
c-4 22 -1 25 23 25 24 0 27 -3 23 -25 -4 -17 -1 -25 8 -25 8 0 14 -4 14 -10 0
-5 7 -10 15 -10 8 0 15 -7 15 -15 0 -13 23 -15 149 -15 176 0 211 5 211 31 0
14 7 19 25 19 33 0 35 -37 3 -43 -13 -2 10 -5 50 -6 71 -1 72 0 72 24 0 16 6
25 15 25 9 0 15 -9 15 -25 l0 -25 129 0 c152 0 188 6 196 31 7 20 55 28 55 9
0 -6 30 -10 70 -10 56 0 70 3 70 15 0 8 -9 15 -20 15 -13 0 -20 7 -20 20 0 13
7 20 20 20 19 0 20 7 20 140 0 133 1 140 20 140 13 0 20 7 20 19 0 19 -10 20
-244 23 -134 2 -247 6 -250 9 -4 3 -8 48 -10 100 -2 52 -4 100 -5 107 -1 6
-10 12 -21 12 -18 0 -20 -8 -22 -112 l-3 -113 -272 -3 -273 -2 0 84 c0 111 -7
146 -31 146 -17 0 -19 -9 -19 -109z m90 -461 c0 -13 -7 -20 -20 -20 -13 0 -20
7 -20 20 0 13 7 20 20 20 13 0 20 -7 20 -20z m410 -5 c0 -18 -5 -25 -20 -25
-15 0 -20 7 -20 25 0 18 5 25 20 25 15 0 20 -7 20 -25z m510 0 c0 -18 -5 -25
-20 -25 -15 0 -20 7 -20 25 0 18 5 25 20 25 15 0 20 -7 20 -25z"/>
<path d="M5560 1020 c0 -13 7 -20 20 -20 13 0 20 7 20 20 0 13 -7 20 -20 20
-13 0 -20 -7 -20 -20z"/>
<path d="M5650 1020 c0 -11 7 -20 15 -20 8 0 15 9 15 20 0 11 -7 20 -15 20 -8
0 -15 -9 -15 -20z"/>
<path d="M5820 1020 c0 -13 7 -20 20 -20 13 0 20 7 20 20 0 13 -7 20 -20 20
-13 0 -20 -7 -20 -20z"/>
<path d="M5990 630 c0 -17 7 -20 40 -20 33 0 40 3 40 20 0 17 -7 20 -40 20
-33 0 -40 -3 -40 -20z"/>
<path d="M6510 1020 c0 -13 7 -20 20 -20 13 0 20 7 20 20 0 13 -7 20 -20 20
-13 0 -20 -7 -20 -20z"/>
<path d="M6600 1020 c0 -13 7 -20 20 -20 13 0 20 7 20 20 0 13 -7 20 -20 20
-13 0 -20 -7 -20 -20z"/>
<path d="M6770 1020 c0 -13 7 -20 20 -20 13 0 20 7 20 20 0 13 -7 20 -20 20
-13 0 -20 -7 -20 -20z"/>
<path d="M12390 1020 c0 -13 7 -20 20 -20 13 0 20 7 20 20 0 13 -7 20 -20 20
-13 0 -20 -7 -20 -20z"/>
<path d="M12560 1020 c0 -13 7 -20 20 -20 13 0 20 7 20 20 0 13 -7 20 -20 20
-13 0 -20 -7 -20 -20z"/>
<path d="M12650 1020 c0 -13 7 -20 20 -20 13 0 20 7 20 20 0 13 -7 20 -20 20
-13 0 -20 -7 -20 -20z"/>
<path d="M13340 1020 c0 -13 7 -20 20 -20 13 0 20 7 20 20 0 13 -7 20 -20 20
-13 0 -20 -7 -20 -20z"/>
<path d="M13520 1020 c0 -11 7 -20 15 -20 8 0 15 9 15 20 0 11 -7 20 -15 20
-8 0 -15 -9 -15 -20z"/>
<path d="M13600 1020 c0 -13 7 -20 20 -20 13 0 20 7 20 20 0 13 -7 20 -20 20
-13 0 -20 -7 -20 -20z"/>
<path d="M13130 630 c0 -17 7 -20 40 -20 33 0 40 3 40 20 0 17 -7 20 -40 20
-33 0 -40 -3 -40 -20z"/>
<path d="M15010 590 l0 -180 1075 0 1075 0 0 180 0 180 -1075 0 -1075 0 0
-180z"/>
<path d="M2040 575 l0 -175 1075 0 1075 0 0 175 0 175 -1075 0 -1075 0 0 -175z"/>
<path d="M180 9515 l0 -35 165 0 165 0 0 35 0 35 -165 0 -165 0 0 -35z"/>
<path d="M18690 9515 l0 -35 165 0 165 0 0 35 0 35 -165 0 -165 0 0 -35z"/>
<path d="M4690 910 l0 -300 65 0 c58 0 65 2 65 20 0 19 7 20 175 20 l175 0 0
280 0 280 -240 0 -240 0 0 -300z m430 25 l0 -235 -190 0 -190 0 0 235 0 235
190 0 190 0 0 -235z"/>
<path d="M4820 930 l0 -71 108 3 107 3 0 65 0 65 -107 3 -108 3 0 -71z"/>
<path d="M14030 930 l0 -280 175 0 c168 0 175 -1 175 -20 0 -18 7 -20 65 -20
l65 0 0 300 0 300 -240 0 -240 0 0 -280z m430 5 l0 -235 -190 0 -190 0 0 235
0 235 190 0 190 0 0 -235z"/>
<path d="M14164 986 c-3 -7 -4 -38 -2 -67 l3 -54 108 -3 107 -3 0 71 0 70
-105 0 c-80 0 -107 -3 -111 -14z"/>
<path d="M4690 320 l0 -240 240 0 240 0 0 240 0 240 -240 0 -240 0 0 -240z
m80 180 c0 -11 -7 -20 -15 -20 -8 0 -15 9 -15 20 0 11 7 20 15 20 8 0 15 -9
15 -20z m260 0 c0 -19 -7 -20 -105 -20 -98 0 -105 1 -105 20 0 19 7 20 105 20
98 0 105 -1 105 -20z m90 0 c0 -13 -7 -20 -20 -20 -13 0 -20 7 -20 20 0 13 7
20 20 20 13 0 20 -7 20 -20z m-350 -175 c0 -87 -3 -105 -15 -105 -12 0 -15 18
-15 105 0 87 3 105 15 105 12 0 15 -18 15 -105z m260 0 l0 -105 -105 0 -105 0
0 105 0 105 105 0 105 0 0 -105z m90 0 c0 -98 -1 -105 -20 -105 -19 0 -20 7
-20 105 0 98 1 105 20 105 19 0 20 -7 20 -105z m-350 -175 c0 -11 -7 -20 -15
-20 -8 0 -15 9 -15 20 0 11 7 20 15 20 8 0 15 -9 15 -20z m260 0 c0 -19 -7
-20 -105 -20 -98 0 -105 1 -105 20 0 19 7 20 105 20 98 0 105 -1 105 -20z m90
0 c0 -13 -7 -20 -20 -20 -13 0 -20 7 -20 20 0 13 7 20 20 20 13 0 20 -7 20
-20z"/>
<path d="M4860 325 l0 -65 70 0 70 0 0 65 0 65 -70 0 -70 0 0 -65z m90 0 c0
-8 -9 -15 -20 -15 -11 0 -20 7 -20 15 0 8 9 15 20 15 11 0 20 -7 20 -15z"/>
<path d="M14030 320 l0 -240 240 0 240 0 0 240 0 240 -240 0 -240 0 0 -240z
m90 180 c0 -13 -7 -20 -20 -20 -13 0 -20 7 -20 20 0 13 7 20 20 20 13 0 20 -7
20 -20z m260 0 c0 -19 -7 -20 -105 -20 -98 0 -105 1 -105 20 0 19 7 20 105 20
98 0 105 -1 105 -20z m80 0 c0 -11 -7 -20 -15 -20 -8 0 -15 9 -15 20 0 11 7
20 15 20 8 0 15 -9 15 -20z m-340 -175 c0 -98 -1 -105 -20 -105 -19 0 -20 7
-20 105 0 98 1 105 20 105 19 0 20 -7 20 -105z m260 0 l0 -105 -105 0 -105 0
0 105 0 105 105 0 105 0 0 -105z m80 0 c0 -87 -3 -105 -15 -105 -12 0 -15 18
-15 105 0 87 3 105 15 105 12 0 15 -18 15 -105z m-340 -175 c0 -13 -7 -20 -20
-20 -13 0 -20 7 -20 20 0 13 7 20 20 20 13 0 20 -7 20 -20z m260 0 c0 -19 -7
-20 -105 -20 -98 0 -105 1 -105 20 0 19 7 20 105 20 98 0 105 -1 105 -20z m80
0 c0 -11 -7 -20 -15 -20 -8 0 -15 9 -15 20 0 11 7 20 15 20 8 0 15 -9 15 -20z"/>
<path d="M14200 325 l0 -65 70 0 70 0 0 65 0 65 -70 0 -70 0 0 -65z m90 0 c0
-8 -9 -15 -20 -15 -11 0 -20 7 -20 15 0 8 9 15 20 15 11 0 20 -7 20 -15z"/>
<path d="M5770 40 l0 -40 45 0 45 0 0 40 0 40 -45 0 -45 0 0 -40z"/>
<path d="M13340 40 l0 -40 45 0 45 0 0 40 0 40 -45 0 -45 0 0 -40z"/>
</g>
</svg>
